<svg width="1440" height="1078" viewBox="0 0 1440 1078" fill="none" xmlns="http://www.w3.org/2000/svg">
<mask id="mask0_3881_419" style="mask-type:alpha" maskUnits="userSpaceOnUse" x="-19" y="-91" width="1477" height="1044">
<rect x="-19" y="-91" width="1477" height="1044" fill="url(#paint0_linear_3881_419)"/>
</mask>
<g mask="url(#mask0_3881_419)">
<g filter="url(#filter0_f_3881_419)">
<path fill-rule="evenodd" clip-rule="evenodd" d="M473.034 822.739C392.935 823.656 308.674 816.979 253.805 758.617C193.934 694.936 175.001 605.081 187.003 518.503C200.639 420.138 228.883 304.887 321.626 269.387C411.229 235.088 493.094 321.612 576.22 369.519C647.18 410.414 732.84 440.606 755.354 519.35C778.911 601.742 744.43 690.933 686.053 753.666C632.553 811.158 551.563 821.839 473.034 822.739Z" fill="#AF37EE"/>
</g>
<g filter="url(#filter1_f_3881_419)">
<path fill-rule="evenodd" clip-rule="evenodd" d="M448.42 680.215C388.075 692.912 315.735 734.441 267.824 695.617C218.251 655.447 262.907 569.41 238.784 510.341C216.251 455.167 132.059 429.031 134.638 369.489C137.162 311.212 212.677 287.509 250.364 242.987C288.648 197.758 304.55 131.935 357.771 105.88C413.635 78.5312 480.523 84.537 540.522 100.934C601.234 117.525 663.201 145.994 697.545 198.735C730.638 249.556 720.546 315.007 719.404 375.642C718.426 427.523 715.591 479.664 691.39 525.564C667.993 569.937 628.31 601.733 585.992 628.669C543.826 655.508 497.332 669.923 448.42 680.215Z" fill="#1CCAD4" fill-opacity="0.66"/>
</g>
<g filter="url(#filter2_f_3881_419)">
<path d="M618.709 387.152C686.94 482.288 665.041 614.602 569.797 682.682L520.821 717.69C425.576 785.77 293.054 763.837 224.823 668.7L190.476 620.809C122.245 525.672 144.144 393.358 239.389 325.278L288.364 290.27C383.609 222.19 516.131 244.124 584.362 339.26L618.709 387.152Z" fill="url(#paint1_radial_3881_419)"/>
</g>
<g style="mix-blend-mode:overlay" filter="url(#filter3_f_3881_419)">
<path d="M211.883 364.814C257.916 269.401 373.17 229.53 468.643 275.438C564.116 321.347 604.735 436.171 558.702 531.584C512.669 626.997 397.415 666.868 301.942 620.959C206.469 575.051 165.85 460.227 211.883 364.814Z" fill="url(#paint2_radial_3881_419)"/>
</g>
<g filter="url(#filter4_f_3881_419)">
<path d="M439.891 504.783C474.572 432.9 561.403 402.861 633.331 437.448C705.259 472.035 735.861 558.542 701.18 630.424C666.499 702.307 579.669 732.346 507.741 697.759C435.813 663.172 405.211 576.666 439.891 504.783Z" fill="url(#paint3_radial_3881_419)"/>
</g>
<g filter="url(#filter5_f_3881_419)">
<path fill-rule="evenodd" clip-rule="evenodd" d="M435.605 -153.526C482.295 -156.239 524.055 -127.976 568.088 -112.211C614.882 -95.4573 1298.79 -196.932 1323 -153.526C1349.47 -106.075 1110.97 19.4365 1125.5 71.7921C1139.14 120.923 867.929 247.323 852.5 295.921C834.962 351.163 671.916 259.148 627.116 295.921C600.735 317.575 625.379 385.471 600 408.292C574.364 431.345 519.932 416.29 486.067 422.759C452.565 429.159 418.267 417.117 384.869 424.043C328.824 435.666 279.38 489.883 223.566 477.197C174.38 466.018 130.672 414.972 124.627 364.894C117.85 308.766 190.084 267.535 191.431 211.015C192.542 164.411 135.714 132.868 131.263 86.4646C126.493 36.7396 130.836 -21.8942 165.655 -57.7124C200.765 -93.8297 262.336 -80.3513 309.805 -97.1996C353.581 -112.737 389.231 -150.831 435.605 -153.526Z" fill="url(#paint4_linear_3881_419)"/>
</g>
<g filter="url(#filter6_f_3881_419)">
<path fill-rule="evenodd" clip-rule="evenodd" d="M606.786 -222.705C520.837 -230.691 276.887 -262.162 208.725 -209.201C133.839 -151.016 227.471 -32.3997 241.065 61.4549C253.91 150.143 356.736 184.901 422.89 245.351C483.644 300.865 524.831 53.9566 606.786 61.4549C692.459 69.2933 674.138 66.9553 732.771 3.99982C789.14 -56.5238 885.998 34.6446 882.771 -48.0002C879.653 -127.851 958.736 -168.825 899.721 -222.705C843.582 -273.959 682.477 -215.672 606.786 -222.705Z" fill="#E95D6F" fill-opacity="0.2"/>
</g>
<g filter="url(#filter7_d_3881_419)">
<path d="M-516 -61.0685L173.932 -701L863.863 -61.0685L173.932 578.863L-516 -61.0685Z" fill="url(#paint5_linear_3881_419)" fill-opacity="0.1" shape-rendering="crispEdges"/>
</g>
<g filter="url(#filter8_d_3881_419)">
<path d="M-926 -61.0685L-236.068 -701L453.863 -61.0685L-236.068 578.863L-926 -61.0685Z" fill="url(#paint6_linear_3881_419)" fill-opacity="0.1" shape-rendering="crispEdges"/>
</g>
<g filter="url(#filter9_d_3881_419)">
<path d="M590 1094.93L1279.93 455L1969.86 1094.93L1279.93 1734.86L590 1094.93Z" fill="white" fill-opacity="0.1" shape-rendering="crispEdges"/>
</g>
<g filter="url(#filter10_d_3881_419)">
<path d="M702 1286.93L1391.93 647L2081.86 1286.93L1391.93 1926.86L702 1286.93Z" fill="white" fill-opacity="0.1" shape-rendering="crispEdges"/>
</g>
</g>
<defs>
<filter id="filter0_f_3881_419" x="-116.42" y="-38.4512" width="1179.26" height="1161.27" filterUnits="userSpaceOnUse" color-interpolation-filters="sRGB">
<feFlood flood-opacity="0" result="BackgroundImageFix"/>
<feBlend mode="normal" in="SourceGraphic" in2="BackgroundImageFix" result="shape"/>
<feGaussianBlur stdDeviation="150" result="effect1_foregroundBlur_3881_419"/>
</filter>
<filter id="filter1_f_3881_419" x="-65.4199" y="-113" width="987.154" height="1024.81" filterUnits="userSpaceOnUse" color-interpolation-filters="sRGB">
<feFlood flood-opacity="0" result="BackgroundImageFix"/>
<feBlend mode="normal" in="SourceGraphic" in2="BackgroundImageFix" result="shape"/>
<feGaussianBlur stdDeviation="100" result="effect1_foregroundBlur_3881_419"/>
</filter>
<filter id="filter2_f_3881_419" x="42.4857" y="142.402" width="724.214" height="723.157" filterUnits="userSpaceOnUse" color-interpolation-filters="sRGB">
<feFlood flood-opacity="0" result="BackgroundImageFix"/>
<feBlend mode="normal" in="SourceGraphic" in2="BackgroundImageFix" result="shape"/>
<feGaussianBlur stdDeviation="54.1446" result="effect1_foregroundBlur_3881_419"/>
</filter>
<filter id="filter3_f_3881_419" x="86.9069" y="150.395" width="596.772" height="595.607" filterUnits="userSpaceOnUse" color-interpolation-filters="sRGB">
<feFlood flood-opacity="0" result="BackgroundImageFix"/>
<feBlend mode="normal" in="SourceGraphic" in2="BackgroundImageFix" result="shape"/>
<feGaussianBlur stdDeviation="52.9955" result="effect1_foregroundBlur_3881_419"/>
</filter>
<filter id="filter4_f_3881_419" x="99.0659" y="96.5722" width="942.94" height="942.063" filterUnits="userSpaceOnUse" color-interpolation-filters="sRGB">
<feFlood flood-opacity="0" result="BackgroundImageFix"/>
<feBlend mode="normal" in="SourceGraphic" in2="BackgroundImageFix" result="shape"/>
<feGaussianBlur stdDeviation="163.261" result="effect1_foregroundBlur_3881_419"/>
</filter>
<filter id="filter5_f_3881_419" x="-175.822" y="-464.417" width="1800.87" height="1243.52" filterUnits="userSpaceOnUse" color-interpolation-filters="sRGB">
<feFlood flood-opacity="0" result="BackgroundImageFix"/>
<feBlend mode="normal" in="SourceGraphic" in2="BackgroundImageFix" result="shape"/>
<feGaussianBlur stdDeviation="150" result="effect1_foregroundBlur_3881_419"/>
</filter>
<filter id="filter6_f_3881_419" x="-20" y="-444" width="1141.66" height="897.49" filterUnits="userSpaceOnUse" color-interpolation-filters="sRGB">
<feFlood flood-opacity="0" result="BackgroundImageFix"/>
<feBlend mode="normal" in="SourceGraphic" in2="BackgroundImageFix" result="shape"/>
<feGaussianBlur stdDeviation="100" result="effect1_foregroundBlur_3881_419"/>
</filter>
<filter id="filter7_d_3881_419" x="-616" y="-771" width="1579.86" height="1479.86" filterUnits="userSpaceOnUse" color-interpolation-filters="sRGB">
<feFlood flood-opacity="0" result="BackgroundImageFix"/>
<feColorMatrix in="SourceAlpha" type="matrix" values="0 0 0 0 0 0 0 0 0 0 0 0 0 0 0 0 0 0 127 0" result="hardAlpha"/>
<feOffset dy="30"/>
<feGaussianBlur stdDeviation="50"/>
<feComposite in2="hardAlpha" operator="out"/>
<feColorMatrix type="matrix" values="0 0 0 0 0 0 0 0 0 0 0 0 0 0 0 0 0 0 0.25 0"/>
<feBlend mode="normal" in2="BackgroundImageFix" result="effect1_dropShadow_3881_419"/>
<feBlend mode="normal" in="SourceGraphic" in2="effect1_dropShadow_3881_419" result="shape"/>
</filter>
<filter id="filter8_d_3881_419" x="-1026" y="-771" width="1579.86" height="1479.86" filterUnits="userSpaceOnUse" color-interpolation-filters="sRGB">
<feFlood flood-opacity="0" result="BackgroundImageFix"/>
<feColorMatrix in="SourceAlpha" type="matrix" values="0 0 0 0 0 0 0 0 0 0 0 0 0 0 0 0 0 0 127 0" result="hardAlpha"/>
<feOffset dy="30"/>
<feGaussianBlur stdDeviation="50"/>
<feComposite in2="hardAlpha" operator="out"/>
<feColorMatrix type="matrix" values="0 0 0 0 0 0 0 0 0 0 0 0 0 0 0 0 0 0 0.25 0"/>
<feBlend mode="normal" in2="BackgroundImageFix" result="effect1_dropShadow_3881_419"/>
<feBlend mode="normal" in="SourceGraphic" in2="effect1_dropShadow_3881_419" result="shape"/>
</filter>
<filter id="filter9_d_3881_419" x="490" y="385" width="1579.86" height="1479.86" filterUnits="userSpaceOnUse" color-interpolation-filters="sRGB">
<feFlood flood-opacity="0" result="BackgroundImageFix"/>
<feColorMatrix in="SourceAlpha" type="matrix" values="0 0 0 0 0 0 0 0 0 0 0 0 0 0 0 0 0 0 127 0" result="hardAlpha"/>
<feOffset dy="30"/>
<feGaussianBlur stdDeviation="50"/>
<feComposite in2="hardAlpha" operator="out"/>
<feColorMatrix type="matrix" values="0 0 0 0 0 0 0 0 0 0 0 0 0 0 0 0 0 0 0.25 0"/>
<feBlend mode="normal" in2="BackgroundImageFix" result="effect1_dropShadow_3881_419"/>
<feBlend mode="normal" in="SourceGraphic" in2="effect1_dropShadow_3881_419" result="shape"/>
</filter>
<filter id="filter10_d_3881_419" x="602" y="577" width="1579.86" height="1479.86" filterUnits="userSpaceOnUse" color-interpolation-filters="sRGB">
<feFlood flood-opacity="0" result="BackgroundImageFix"/>
<feColorMatrix in="SourceAlpha" type="matrix" values="0 0 0 0 0 0 0 0 0 0 0 0 0 0 0 0 0 0 127 0" result="hardAlpha"/>
<feOffset dy="30"/>
<feGaussianBlur stdDeviation="50"/>
<feComposite in2="hardAlpha" operator="out"/>
<feColorMatrix type="matrix" values="0 0 0 0 0 0 0 0 0 0 0 0 0 0 0 0 0 0 0.25 0"/>
<feBlend mode="normal" in2="BackgroundImageFix" result="effect1_dropShadow_3881_419"/>
<feBlend mode="normal" in="SourceGraphic" in2="effect1_dropShadow_3881_419" result="shape"/>
</filter>
<linearGradient id="paint0_linear_3881_419" x1="739.501" y1="-126.833" x2="742.244" y2="975.275" gradientUnits="userSpaceOnUse">
<stop offset="0.00242654" stop-color="#D9D9D9"/>
<stop offset="0.490413" stop-color="#D9D9D9"/>
<stop offset="0.999609" stop-color="#D9D9D9" stop-opacity="0"/>
</linearGradient>
<radialGradient id="paint1_radial_3881_419" cx="0" cy="0" r="1" gradientUnits="userSpaceOnUse" gradientTransform="translate(483.376 540.7) rotate(-133.3) scale(320.054 320.753)">
<stop stop-color="#FFD84B"/>
<stop offset="1" stop-color="#FFD84B" stop-opacity="0"/>
</radialGradient>
<radialGradient id="paint2_radial_3881_419" cx="0" cy="0" r="1" gradientUnits="userSpaceOnUse" gradientTransform="translate(304.878 439.373) rotate(90.9263) scale(181.61 182.292)">
<stop stop-color="#9207FF"/>
<stop offset="1" stop-color="#FF9898"/>
</radialGradient>
<radialGradient id="paint3_radial_3881_419" cx="0" cy="0" r="1" gradientUnits="userSpaceOnUse" gradientTransform="translate(514.173 537.458) rotate(115.156) scale(629.162 631.145)">
<stop stop-color="#5AE9FD"/>
<stop offset="1" stop-color="#5AE9FD" stop-opacity="0"/>
</radialGradient>
<linearGradient id="paint4_linear_3881_419" x1="670.437" y1="-164" x2="683.5" y2="315.5" gradientUnits="userSpaceOnUse">
<stop stop-color="#AF37EE"/>
<stop offset="1" stop-color="#253087"/>
</linearGradient>
<linearGradient id="paint5_linear_3881_419" x1="370" y1="223" x2="152" y2="446.5" gradientUnits="userSpaceOnUse">
<stop stop-color="white"/>
<stop offset="1" stop-color="white" stop-opacity="0"/>
</linearGradient>
<linearGradient id="paint6_linear_3881_419" x1="275.5" y1="7.99971" x2="-214" y2="453" gradientUnits="userSpaceOnUse">
<stop stop-color="white"/>
<stop offset="0.453504" stop-color="white" stop-opacity="0"/>
</linearGradient>
</defs>
</svg>
