<?xml version="1.0" encoding="utf-8"?>
<!-- Generator: Adobe Illustrator 22.1.0, SVG Export Plug-In . SVG Version: 6.00 Build 0)  -->
<svg version="1.1" id="图层_1" xmlns="http://www.w3.org/2000/svg" xmlns:xlink="http://www.w3.org/1999/xlink" x="0px" y="0px"
	 viewBox="0 0 750 750" style="enable-background:new 0 0 750 750;" xml:space="preserve">
<g>
	<path style="fill-rule:evenodd;clip-rule:evenodd;fill:#3564FF;" d="M622.4,317.9c7.1-4.6,16.6-2.7,21.3,4.4
		c4.6,7.1,2.7,16.6-4.4,21.3c-7.1,4.6-16.6,2.7-21.3-4.4C613.3,332,615.3,322.5,622.4,317.9L622.4,317.9z"/>
	<path style="fill-rule:evenodd;clip-rule:evenodd;fill:#3564FF;" d="M626.8,324.6c13-8.5,25.3-12.7,27.5-9.3
		c2.2,3.4-6.5,13-19.5,21.5c-13,8.5-25.3,12.7-27.5,9.3C605.1,342.7,613.8,333.1,626.8,324.6L626.8,324.6z M650.8,317.6
		c-0.8,0-1.8,0.1-2.6,0.3c-5,1.2-12.2,4.6-19.6,9.5c-7.4,4.9-13.4,10.1-16.5,14.2c-0.5,0.7-1,1.6-1.3,2.3c0.8,0,1.8-0.1,2.6-0.3
		c5-1.2,12.2-4.6,19.6-9.5c7.4-4.8,13.4-10.1,16.5-14.2C650,319.1,650.5,318.3,650.8,317.6L650.8,317.6z"/>
	<g>
		<defs>
			<polygon id="XMLID_1_" points="617.8,444.6 430.5,444.6 430.5,631 617.8,631 617.8,444.6 			"/>
		</defs>
		<clipPath id="XMLID_4_">
			<use xlink:href="#XMLID_1_"  style="overflow:visible;"/>
		</clipPath>
		
			<rect x="427.1" y="412.7" style="opacity:0.1;clip-path:url(#XMLID_4_);fill-rule:evenodd;clip-rule:evenodd;fill:#3564FF;stroke:#000000;stroke-width:1.7999;stroke-linecap:round;stroke-linejoin:round;stroke-miterlimit:10;" width="205.2" height="246.2"/>
		
			<use xlink:href="#XMLID_1_"  style="overflow:visible;fill-rule:evenodd;clip-rule:evenodd;fill:none;stroke:#000000;stroke-width:1.7999;stroke-linecap:round;stroke-linejoin:round;stroke-miterlimit:10;"/>
	</g>
	
		<polygon style="fill-rule:evenodd;clip-rule:evenodd;fill:#FFFFFF;stroke:#000000;stroke-width:1.7999;stroke-linecap:round;stroke-linejoin:round;stroke-miterlimit:10;" points="
		533.8,444.6 350.9,444.6 350.9,506.8 533.8,506.8 533.8,444.6 	"/>
	
		<polygon style="fill-rule:evenodd;clip-rule:evenodd;fill:#FFFFFF;stroke:#000000;stroke-width:1.7999;stroke-linecap:round;stroke-linejoin:round;stroke-miterlimit:10;" points="
		490,506.8 307.1,506.8 307.1,568.9 490,568.9 490,506.8 	"/>
	
		<polygon style="fill-rule:evenodd;clip-rule:evenodd;fill:#FFFFFF;stroke:#000000;stroke-width:1.7999;stroke-linecap:round;stroke-linejoin:round;stroke-miterlimit:10;" points="
		442.3,568.9 259.4,568.9 259.4,631 442.3,631 442.3,568.9 	"/>
	<path style="opacity:0.1;fill-rule:evenodd;clip-rule:evenodd;fill:#3564FF;" d="M188.8,163.3c75.7,0,137.2,61.5,137.2,137.2
		c0,75.7-61.5,137.2-137.2,137.2c-75.7,0-137.2-61.5-137.2-137.2C51.5,224.8,113,163.3,188.8,163.3L188.8,163.3z"/>
	
		<polygon style="fill-rule:evenodd;clip-rule:evenodd;fill:#FFFFFF;stroke:#000000;stroke-width:1.7999;stroke-linecap:round;stroke-linejoin:round;stroke-miterlimit:10;" points="
		264.1,200.3 242.4,224.3 271.1,229.2 276.7,206.6 264.1,200.3 	"/>
	
		<polygon style="fill-rule:evenodd;clip-rule:evenodd;fill:#FFFFFF;stroke:#000000;stroke-width:1.7999;stroke-linecap:round;stroke-linejoin:round;stroke-miterlimit:10;" points="
		283.2,191.1 289.2,198.8 284.7,201.9 283.2,191.1 	"/>
	
		<path style="fill-rule:evenodd;clip-rule:evenodd;fill:#FFFFFF;stroke:#000000;stroke-width:1.7999;stroke-linecap:round;stroke-linejoin:round;stroke-miterlimit:10;" d="
		M263.5,177.9c6.3-3.1,15.1,2.1,19.6,11.4c4.5,9.3,3.1,19.4-3.2,22.5c-6.3,3.1-15.1-2.1-19.6-11.4
		C255.8,191,257.3,180.9,263.5,177.9L263.5,177.9z"/>
	<path style="fill-rule:evenodd;clip-rule:evenodd;" d="M286.7,165.2c4.9,7,3.9,16.3-2.2,20.6c-6.2,4.3-15.2,2.1-20.1-4.9
		c-4.9-7-3.9-16.3,2.2-20.6C272.8,156,281.8,158.2,286.7,165.2L286.7,165.2z"/>
	<path style="fill-rule:evenodd;clip-rule:evenodd;" d="M281,193.3c0.6,1.3,0.6,2.6,0,2.9c-0.6,0.3-1.6-0.5-2.2-1.9
		c-0.6-1.3-0.6-2.6,0-2.9C279.4,191.2,280.4,192,281,193.3L281,193.3z"/>
	<path style="fill-rule:evenodd;clip-rule:evenodd;" d="M248.3,180.8c4.5-3.9,10.7-4.1,13.8-0.5c3.1,3.6,2,9.7-2.6,13.6
		c-4.5,3.9-10.7,4.1-13.8,0.5C242.6,190.7,243.8,184.7,248.3,180.8L248.3,180.8z"/>
	<path style="fill-rule:evenodd;clip-rule:evenodd;" d="M259.5,173.6c5.1-3.5,12.1-2.3,15.6,2.8c3.4,5,2.1,12-3.1,15.5
		c-5.1,3.5-12.1,2.3-15.6-2.8C253,184,254.4,177.1,259.5,173.6L259.5,173.6z"/>
	<path style="fill-rule:evenodd;clip-rule:evenodd;" d="M255.7,172.6c2.4-2,7-0.3,10.3,3.6c3.3,4,4,8.9,1.6,10.8
		c-2.4,2-7,0.3-10.3-3.6C253.9,179.5,253.2,174.6,255.7,172.6L255.7,172.6z"/>
	<path style="fill-rule:evenodd;clip-rule:evenodd;" d="M260.9,184.8c4.6,0.7,7.6,5.7,6.8,11.3c-0.8,5.5-5.2,9.5-9.8,8.8
		c-4.6-0.7-7.6-5.7-6.8-11.3C251.9,188,256.3,184.1,260.9,184.8L260.9,184.8z"/>
	
		<path style="fill-rule:evenodd;clip-rule:evenodd;fill:#FFFFFF;stroke:#000000;stroke-width:1.7999;stroke-linecap:round;stroke-linejoin:round;stroke-miterlimit:10;" d="
		M265.9,207.1c-2.7,1.3-6.3-0.3-7.9-3.7c-1.6-3.4-0.7-7.2,2-8.5c2.7-1.3,6-0.3,7.6,3.1"/>
	
		<polygon style="fill-rule:evenodd;clip-rule:evenodd;fill:#FFFFFF;stroke:#000000;stroke-width:1.7999;stroke-linecap:round;stroke-linejoin:round;stroke-miterlimit:10;" points="
		165.5,548.3 131.7,628.5 215.4,631 206.4,618.8 205.3,582.1 165.5,548.3 	"/>
	
		<polygon style="fill-rule:evenodd;clip-rule:evenodd;fill:#FFFFFF;stroke:#000000;stroke-width:1.7999;stroke-linecap:round;stroke-linejoin:round;stroke-miterlimit:10;" points="
		337,507.8 334.1,567.9 421.6,567.4 407.2,552.8 390.1,497.5 337,507.8 	"/>
	
		<path style="fill-rule:evenodd;clip-rule:evenodd;fill:#FFFFFF;stroke:#000000;stroke-width:1.7999;stroke-linecap:round;stroke-linejoin:round;stroke-miterlimit:10;" d="
		M193.4,271.9c0,0-28.4,38.4-23.2,108.3c1.7,22.3,15.1,23.3,20.3,27c5.1,3.6,39.1-113.3,39.1-113.3S192.9,273.1,193.4,271.9
		L193.4,271.9z"/>
	
		<path style="fill-rule:evenodd;clip-rule:evenodd;fill:#FFFFFF;stroke:#000000;stroke-width:1.7999;stroke-linecap:round;stroke-linejoin:round;stroke-miterlimit:10;" d="
		M266,260c13.4-12.5-3.9-52.1-32.9-34.6c-25.6,15.4-44.8,50.3-44.8,50.3s30.2,14.5,40.8,10.9C243.7,281.6,250.7,274.2,266,260
		L266,260z"/>
	
		<path style="fill-rule:evenodd;clip-rule:evenodd;fill:#FFFFFF;stroke:#000000;stroke-width:1.7999;stroke-linecap:round;stroke-linejoin:round;stroke-miterlimit:10;" d="
		M227.6,383.4c0,0,97.6,39.1,97.2,54.4c-1.6,61.1,2.1,90.7,2.1,90.7l70.4-29.3c0,0,8.3-34.7,1.8-90.1
		c-5.6-48.5-131.2-77.8-131.2-77.8L227.6,383.4L227.6,383.4z"/>
	
		<path style="fill-rule:evenodd;clip-rule:evenodd;fill:#FFFFFF;stroke:#000000;stroke-width:1.7999;stroke-linecap:round;stroke-linejoin:round;stroke-miterlimit:10;" d="
		M212.7,325.2c0,0-11.6,14-23.3,85.1c-15.1,91.6-48.5,159.8-48.5,159.8l73.4,29.4c0,0,34.3-72.3,48.5-147.7
		c13.5-71.5,13.7-141.5,13.7-141.5L212.7,325.2L212.7,325.2z"/>
	
		<path style="fill-rule:evenodd;clip-rule:evenodd;fill:#FFFFFF;stroke:#000000;stroke-width:1.7999;stroke-linecap:round;stroke-linejoin:round;stroke-miterlimit:10;" d="
		M241,217.2c0,0-49.1,42.1-35.7,114.5l100.9,8.9c0,0-25.7-89.6-32.1-111.4L241,217.2L241,217.2z"/>
	
		<path style="fill-rule:evenodd;clip-rule:evenodd;fill:#FFFFFF;stroke:#000000;stroke-width:1.7999;stroke-linecap:round;stroke-linejoin:round;stroke-miterlimit:10;" d="
		M276.9,239.9c-12.6-13.3-36.3-2.1-35.8,31.8c0.4,33.9,10.2,60.9,24.7,75.6c12.5,12.6,39.9,26.1,63.7,30.4c9.7,1.7-6.7-2.7-2.3,5
		c1.3,2.4,9.2,4.8,14-0.5c4.2-4.7,6.2-16-1.7-30c-7.4-13-37.3-32.4-41-43c-2.8-8.1-4.7-24-8.3-39
		C287.2,258.1,283.3,246.6,276.9,239.9L276.9,239.9z"/>
	
		<path style="fill-rule:evenodd;clip-rule:evenodd;fill:#FFFFFF;stroke:#000000;stroke-width:1.7999;stroke-linecap:round;stroke-linejoin:round;stroke-miterlimit:10;" d="
		M277,238.9c-14.6-11-36.6-11.5-43.5,21.7c-4.1,19.6,4.1,41.7,4.1,41.7l57-22.9C294.6,279.3,289.2,248,277,238.9L277,238.9z"/>
	<path style="fill-rule:evenodd;clip-rule:evenodd;fill:#3564FF;" d="M580.8,157.7l-85.2,94l-85.2-94c0-47,38.2-85.2,85.2-85.2
		C542.6,72.4,580.8,110.6,580.8,157.7L580.8,157.7z"/>
	<g>
		<defs>
			<path id="SVGID_17_" d="M580.8,157.7l-85.2,94l-85.2-94c0-47,38.2-85.2,85.2-85.2C542.6,72.4,580.8,110.6,580.8,157.7
				L580.8,157.7z"/>
		</defs>
		<clipPath id="SVGID_2_">
			<use xlink:href="#SVGID_17_"  style="overflow:visible;"/>
		</clipPath>
		<polygon style="clip-path:url(#SVGID_2_);fill-rule:evenodd;clip-rule:evenodd;fill:#FFFFFF;" points="565,221.7 426.1,221.7 
			426.1,281.7 565,281.7 565,221.7 		"/>
	</g>
	<path style="fill-rule:evenodd;clip-rule:evenodd;" d="M580.8,157.7l-85.2,94l-85.2-94c0-47,38.2-85.2,85.2-85.2
		C542.6,72.4,580.8,110.6,580.8,157.7L580.8,157.7z M578.9,157c-0.4-45.7-37.6-82.7-83.4-82.7c-45.8,0-83,37-83.4,82.7l83.4,92
		L578.9,157L578.9,157z"/>
	<polygon style="opacity:0.15;fill-rule:evenodd;clip-rule:evenodd;fill:#3564FF;" points="520.6,251.3 470.5,251.3 470.5,301.4 
		520.6,301.4 520.6,251.3 	"/>
	<path style="fill-rule:evenodd;clip-rule:evenodd;" d="M470.5,251.3v50.1h50.1v-50.1H470.5z M518.8,299.5h-46.4v-46.4h46.4V299.5z"
		/>
</g>
</svg>
