<?xml version="1.0" encoding="utf-8"?>
<!-- Generator: Adobe Illustrator 22.1.0, SVG Export Plug-In . SVG Version: 6.00 Build 0)  -->
<svg version="1.1" id="图层_1" xmlns="http://www.w3.org/2000/svg" xmlns:xlink="http://www.w3.org/1999/xlink" x="0px" y="0px"
	 viewBox="0 0 750 750" style="enable-background:new 0 0 750 750;" xml:space="preserve">
<g>
	<g>
		<defs>
			<polygon id="SVGID_19_" points="608.3,136.1 18.5,136.1 18.5,554.1 608.3,554.1 608.3,136.1 			"/>
		</defs>
		<clipPath id="SVGID_2_">
			<use xlink:href="#SVGID_19_"  style="overflow:visible;"/>
		</clipPath>
		
			<polygon style="clip-path:url(#SVGID_2_);fill:#FFFFFF;stroke:#000000;stroke-width:1.7999;stroke-linecap:round;stroke-linejoin:round;stroke-miterlimit:10;" points="
			270.6,293.4 291.2,282.2 296.7,255.8 317,255 321.9,280.3 340.8,293.8 307.2,306.7 270.6,293.4 		"/>
		
			<path style="clip-path:url(#SVGID_2_);fill-rule:evenodd;clip-rule:evenodd;fill:#FFFFFF;stroke:#000000;stroke-width:1.7999;stroke-linecap:round;stroke-linejoin:round;stroke-miterlimit:10;" d="
			M235.4,307c-21.7,0.1-148.3,63.2-99.2,123c24,29.2,140.7-67.9,140.7-67.9l29.4-25.6L235.4,307L235.4,307z"/>
		
			<path style="clip-path:url(#SVGID_2_);fill-rule:evenodd;clip-rule:evenodd;fill:#FFFFFF;stroke:#000000;stroke-width:1.7999;stroke-linecap:round;stroke-linejoin:round;stroke-miterlimit:10;" d="
			M403.1,356.6c0,0,25.1,25.8,37.8,79.6c10.7,44.9,2,94.5-12.5,120.8c-14.5,26.3-40.3,23.2-40.3,23.2l-11.1-215.6L403.1,356.6
			L403.1,356.6z"/>
		
			<path style="clip-path:url(#SVGID_2_);fill-rule:evenodd;clip-rule:evenodd;fill:#FFFFFF;stroke:#000000;stroke-width:1.7999;stroke-linecap:round;stroke-linejoin:round;stroke-miterlimit:10;" d="
			M235.2,446c0,0-16.4,102.3-24.6,167.4c-14.1,111.9-16.9,280.6-16.9,280.6l99.7,3.4l17.9-333l17.2,332.7l104.6-5
			c0,0-5.6-164.2-19.3-281.2C403.9,528.4,369,407,369,407"/>
		<path style="clip-path:url(#SVGID_2_);fill-rule:evenodd;clip-rule:evenodd;fill:#FFFFFF;" d="M283.1,241.7
			c3.8-0.9,7.9,2.5,9.1,7.6c1.2,5.1-1,9.9-4.8,10.8c-3.8,0.9-7.9-2.5-9.1-7.6C277.2,247.4,279.3,242.6,283.1,241.7L283.1,241.7z"/>
		
			<path style="clip-path:url(#SVGID_2_);fill:none;stroke:#000000;stroke-width:1.7999;stroke-linecap:round;stroke-linejoin:round;stroke-miterlimit:10;" d="
			M283.1,241.7c3.8-0.9,7.9,2.5,9.1,7.6c1.2,5.1-1,9.9-4.8,10.8c-3.8,0.9-7.9-2.5-9.1-7.6C277.2,247.4,279.3,242.6,283.1,241.7
			L283.1,241.7z"/>
		
			<path style="clip-path:url(#SVGID_2_);fill-rule:evenodd;clip-rule:evenodd;fill:#FFFFFF;stroke:#000000;stroke-width:1.7999;stroke-linecap:round;stroke-linejoin:round;stroke-miterlimit:10;" d="
			M328,240c3.7,1.3,5.3,6.4,3.5,11.3c-1.8,4.9-6.2,7.8-9.9,6.4c-3.7-1.3-5.3-6.4-3.5-11.3C319.9,241.5,324.4,238.6,328,240L328,240z
			"/>
		
			<path style="clip-path:url(#SVGID_2_);fill-rule:evenodd;clip-rule:evenodd;fill:#FFFFFF;stroke:#000000;stroke-width:1.7999;stroke-linecap:round;stroke-linejoin:round;stroke-miterlimit:10;" d="
			M305.7,211.9c11.5,0,20.9,14,20.9,31.2s-9.3,31.2-20.9,31.2c-11.5,0-20.9-14-20.9-31.2S294.2,211.9,305.7,211.9L305.7,211.9z"/>
		<path style="clip-path:url(#SVGID_2_);fill-rule:evenodd;clip-rule:evenodd;" d="M310.6,217.7c2,12.6-7.1,24.5-20.4,26.7
			c-13.3,2.1-25.7-6.3-27.7-18.9c-2-12.6,7.1-24.5,20.4-26.7C296.2,196.6,308.6,205.1,310.6,217.7L310.6,217.7z"/>
		<path style="clip-path:url(#SVGID_2_);fill-rule:evenodd;clip-rule:evenodd;" d="M329.4,215.5c5.9,4.1,6.7,13.2,1.8,20.3
			c-4.9,7.1-13.7,9.5-19.7,5.4c-5.9-4.1-6.7-13.2-1.8-20.3C314.7,213.8,323.5,211.4,329.4,215.5L329.4,215.5z"/>
		<path style="clip-path:url(#SVGID_2_);fill-rule:evenodd;clip-rule:evenodd;" d="M317.8,212.7c0.9,5.6-1.3,10.7-4.9,11.3
			c-3.6,0.6-7.3-3.5-8.2-9.1c-0.9-5.6,1.3-10.7,4.9-11.3C313.2,203,316.9,207.1,317.8,212.7L317.8,212.7z"/>
		
			<path style="clip-path:url(#SVGID_2_);fill-rule:evenodd;clip-rule:evenodd;fill:#FFFFFF;stroke:#000000;stroke-width:1.7999;stroke-linecap:round;stroke-linejoin:round;stroke-miterlimit:10;" d="
			M276.9,286.8c0.5-0.2,0.9-0.4,1.4-0.6c1.6,7.1,13.8,12.6,28.6,12.6c14.1,0,25.8-5,28.3-11.7c0.2,0.1,45.4-4.7,87.2,89.3l-44,4.9
			c13.2,46.9,16,92.2,16,92.2l-174.9-0.5c0,0,0.6-47.5,15.7-97.2l-55.1-49.8c51.5-34.7,97-39.6,97-39.6L276.9,286.8L276.9,286.8z"/>
		<path style="clip-path:url(#SVGID_2_);fill-rule:evenodd;clip-rule:evenodd;" d="M298.7,250.1c0,2.4-0.9,4.3-2,4.3
			c-1.1,0-2-2-1.9-4.3c0-2.4,0.9-4.3,2-4.3C297.9,245.7,298.7,247.7,298.7,250.1L298.7,250.1z"/>
		<path style="clip-path:url(#SVGID_2_);fill-rule:evenodd;clip-rule:evenodd;" d="M315.6,249.8c0,2.4-0.9,4.3-2,4.3
			c-1.1,0-2-2-1.9-4.3c0-2.4,0.9-4.3,2-4.3C314.8,245.4,315.6,247.4,315.6,249.8L315.6,249.8z"/>
		<g style="clip-path:url(#SVGID_2_);">
			<g>
				<path style="fill:#3564FF;" d="M296.9,174.8c5.5,0,11,0.7,16.3,2.1c16.8,4.3,30.9,15,39.7,29.9s11.3,32.5,6.9,49.3
					c-7.4,28.7-33.3,48.7-62.9,48.7c-5.5,0-11-0.7-16.3-2.1c-16.8-4.3-30.9-15-39.7-29.9c-8.8-15-11.3-32.5-6.9-49.3
					C241.4,194.8,267.3,174.8,296.9,174.8L296.9,174.8 M296.9,160.8c-35.1,0-67.2,23.6-76.4,59.2c-10.9,42.2,14.5,85.3,56.7,96.3
					c6.6,1.7,13.3,2.5,19.8,2.5c35.1,0,67.2-23.6,76.4-59.2c10.9-42.2-14.5-85.3-56.7-96.3C310.1,161.6,303.4,160.8,296.9,160.8
					L296.9,160.8z"/>
			</g>
			<g>
				<polygon style="fill:#3564FF;" points="267.6,306.9 239.8,414.6 262.1,420.4 290,312.7 267.6,306.9 				"/>
			</g>
		</g>
		
			<path style="clip-path:url(#SVGID_2_);fill-rule:evenodd;clip-rule:evenodd;fill:#FFFFFF;stroke:#000000;stroke-width:1.7999;stroke-linejoin:round;stroke-miterlimit:10;" d="
			M171.9,371.2c0,0,55.1,1,65.7-0.8c11.7-1.9,39.3-21.3,45.5-6c2.8,6.9-0.8,20.7-8.1,26.2c-9.2,7-34.9,6-34.9,6
			s-53.6,45.6-93.2,38.6"/>
	</g>
	<path style="fill:none;stroke:#000000;stroke-width:1.7999;stroke-linecap:round;stroke-linejoin:round;stroke-miterlimit:10;" d="
		M102.4,554.7c240.3-0.5,367-0.1,531.8,0"/>
	
		<path style="fill-rule:evenodd;clip-rule:evenodd;fill:#FFFFFF;stroke:#000000;stroke-width:1.7999;stroke-linejoin:round;stroke-miterlimit:10;" d="
		M482.3,515.1c40.5-8.1,52.7,71.7,94.5,36c43.3-37,62.5-235.9,62.5-235.9L550.9,298c0,0-7.1,63.4-16.1,102.2
		c-33.7,144.3-49,122.3-58.4,132.5"/>
	<path style="fill-rule:evenodd;clip-rule:evenodd;fill:#3564FF;" d="M304.9,557.2c0,0,16.4-33.2,40.6-29
		c21.6,3.8,26.1,14.9,35,25.3c7.2,8.4,23.7,32.9,35.1,36.7L327.4,571c0,0-8.5-2.4-13.4-5.6C309,562.3,304.9,557.2,304.9,557.2
		L304.9,557.2z"/>
	<path style="fill-rule:evenodd;clip-rule:evenodd;" d="M304.9,557.2c0,0,16.4-33.2,40.6-29c21.6,3.8,26.1,14.9,35,25.3
		c7.2,8.4,23.7,32.9,35.1,36.7L327.4,571c0,0-8.5-2.4-13.4-5.6C309,562.3,304.9,557.2,304.9,557.2L304.9,557.2z M406.2,586.3
		c-2.3-2-4.7-4.4-7.1-7c-7.9-8.7-15.6-19.5-19.9-24.6c-8.6-10.1-13-21-33.9-24.7c-9.1-1.6-17,2.5-23.2,8c-7.9,6.9-13.2,16-14.9,19
		c1.4,1.5,4.4,4.8,7.9,7c4.5,2.9,12.2,5.1,12.9,5.3L406.2,586.3L406.2,586.3z"/>
	<path style="fill-rule:evenodd;clip-rule:evenodd;fill:#FFFFFF;" d="M343.6,528.1c0.5-1-88.4-19.5-88.4-19.5s-7.9-1.5-21.3,8.8
		c-13.6,10.4-16.2,21.4-31.3,37.6c1.1,1.6,4.6,28.1,52.1,35.4c22.6,3.5,44.8-20.4,59.1-42C326.3,529.4,343.1,528.8,343.6,528.1
		L343.6,528.1z"/>
	<path style="fill-rule:evenodd;clip-rule:evenodd;" d="M255.2,508.7c0,0-7.9-1.5-21.3,8.8c-13.6,10.4-16.2,21.4-31.3,37.6
		c1.1,1.6,4.6,28.1,52.1,35.4c22.6,3.5,44.8-20.4,59.1-42c12.6-19.1,29.5-19.6,29.9-20.4C344.1,527.1,255.2,508.7,255.2,508.7z
		 M312.1,547.5c-8.4,12.8-19.7,26.4-32.1,34.5c-8,5.2-16.6,8.1-25.2,6.8c-41.4-6.4-48.4-27.7-50.2-33l-0.1-0.2
		c7.2-7.8,11.5-14.4,15.6-20.4c4.1-5.9,8.1-11.1,14.7-16.2c12.6-9.7,19.9-8.5,19.9-8.5c0,0,61.8,12.8,82,17.7
		C330.4,530.1,320.4,535,312.1,547.5z"/>
	<path style="fill-rule:evenodd;clip-rule:evenodd;fill:#3564FF;" d="M100.1,500.5l88.4,19.8c0,0,18,64.2,65.9,70.1l-93.2-20.1
		c0,0-21.2-4.3-40.2-28.8C102,516.9,100.1,500.5,100.1,500.5L100.1,500.5z"/>
	<path style="fill-rule:evenodd;clip-rule:evenodd;" d="M244.6,588.3l-83.4-18c0,0-21.2-4.3-40.2-28.8c-19-24.6-20.9-41-20.9-41
		l88.4,19.8C188.5,520.3,204,575.6,244.6,588.3l9.8,2.1C251,590,247.7,589.2,244.6,588.3L244.6,588.3z M102.4,502.8
		c1.3,5.4,5.8,19.1,20,37.5c18.5,24,39.1,28.2,39.1,28.2c0,0,0,0,0,0l67.9,14.6c-8-5.1-14.8-11.8-20.4-18.9
		c-13.8-17.6-20.5-37.7-22-42.5L102.4,502.8L102.4,502.8z"/>
	<path style="fill-rule:evenodd;clip-rule:evenodd;fill:#3564FF;" d="M552.7,561.1L466,541c0,0-9.3-3.3-11.5-6.1
		c0,0,12.2-24.1,30-25.6c17.8-1.4,30.1,9.4,44.2,29.3C542.7,558.5,552.7,561.1,552.7,561.1L552.7,561.1z"/>
	<path style="fill-rule:evenodd;clip-rule:evenodd;" d="M552.7,561.1L466,541c0,0-9.3-3.3-11.5-6.1c0,0,12.2-24.1,30-25.6
		c17.8-1.4,30.1,9.4,44.2,29.3C542.7,558.5,552.7,561.1,552.7,561.1L552.7,561.1z M542.5,556.9c-4.1-3.5-9.4-8.9-15.3-17.2
		c-13.6-19.2-25.4-29.9-42.6-28.5c-6.7,0.5-12.5,4.6-17.1,9.1c-5.5,5.5-9.4,11.8-10.8,14.3c0.6,0.5,1.3,0.9,2.1,1.3
		c3.1,1.7,7.1,3.2,7.7,3.4L542.5,556.9L542.5,556.9z"/>
	<path style="fill-rule:evenodd;clip-rule:evenodd;fill:#FFFFFF;" d="M493,509.6l-89.6-19.2c0,0-18.3-2.8-29,16.2
		c-10.7,18.9-13,29.3-13,29.3s8.7,5.3,18.3,21.3c8,13.3,27.4,39.2,44.7,32.3c17.4-7,23.4-35.1,32.4-52.1
		C470.6,511.4,490.4,509.2,493,509.6L493,509.6z"/>
	<g>
		<defs>
			<path id="SVGID_21_" d="M493,509.6l-89.6-19.2c0,0-18.3-2.8-29,16.2c-10.7,18.9-13,29.3-13,29.3s8.7,5.3,18.3,21.3
				c8,13.3,27.4,39.2,44.7,32.3c17.4-7,23.4-35.1,32.4-52.1C470.6,511.4,490.4,509.2,493,509.6L493,509.6z"/>
		</defs>
		<clipPath id="SVGID_4_">
			<use xlink:href="#SVGID_21_"  style="overflow:visible;"/>
		</clipPath>
		<path style="opacity:0.15;clip-path:url(#SVGID_4_);fill-rule:evenodd;clip-rule:evenodd;fill:#3564FF;" d="M450.9,523.5
			c0.6-2.3-0.8-4.7-3.2-5.3l-38.3-9.6c-2.3-0.6-4.7,0.8-5.3,3.2c-0.6,2.3,0.8,4.7,3.2,5.3l38.3,9.6
			C448,527.2,450.3,525.8,450.9,523.5L450.9,523.5z"/>
		<path style="opacity:0.15;clip-path:url(#SVGID_4_);fill-rule:evenodd;clip-rule:evenodd;fill:#3564FF;" d="M432.8,531.4
			c0.6-2.3-0.8-4.7-3.2-5.3L405,520c-2.3-0.6-4.7,0.8-5.3,3.2c-0.6,2.3,0.8,4.7,3.2,5.3l24.6,6.2
			C429.9,535.2,432.2,533.8,432.8,531.4L432.8,531.4z"/>
		<path style="clip-path:url(#SVGID_4_);fill-rule:evenodd;clip-rule:evenodd;fill:#3564FF;" d="M396.2,501.8
			c4.1,1.9,5.1,8.4,2.3,14.4c-2.8,6-8.5,9.4-12.6,7.5c-4.1-1.9-5.1-8.4-2.3-14.4C386.4,503.2,392.1,499.9,396.2,501.8L396.2,501.8z"
			/>
		<path style="opacity:0.15;clip-path:url(#SVGID_4_);fill-rule:evenodd;clip-rule:evenodd;fill:#3564FF;" d="M435.4,554.4
			c0.6-2.3-0.8-4.7-3.2-5.3l-38.3-9.6c-2.3-0.6-4.7,0.8-5.3,3.2c-0.6,2.3,0.8,4.7,3.2,5.3l38.3,9.6
			C432.5,558.2,434.8,556.7,435.4,554.4L435.4,554.4z"/>
		<path style="opacity:0.15;clip-path:url(#SVGID_4_);fill-rule:evenodd;clip-rule:evenodd;fill:#3564FF;" d="M417.3,562.4
			c0.6-2.3-0.8-4.7-3.2-5.3l-24.6-6.2c-2.3-0.6-4.7,0.8-5.3,3.2c-0.6,2.3,0.8,4.7,3.2,5.3l24.6,6.2
			C414.4,566.1,416.7,564.7,417.3,562.4L417.3,562.4z"/>
		<path style="clip-path:url(#SVGID_4_);fill-rule:evenodd;clip-rule:evenodd;fill:#3564FF;" d="M380.7,532.8
			c4.1,1.9,5.1,8.4,2.3,14.4c-2.8,6-8.5,9.4-12.6,7.5c-4.1-1.9-5.1-8.4-2.3-14.4C370.9,534.2,376.6,530.8,380.7,532.8L380.7,532.8z"
			/>
	</g>
	<path style="fill-rule:evenodd;clip-rule:evenodd;" d="M403.4,490.4c0,0-18.3-2.8-29,16.2c-10.7,18.9-13,29.3-13,29.3
		s8.7,5.3,18.3,21.3c8,13.3,27.4,39.2,44.7,32.3c17.4-7,23.4-35.1,32.4-52.1c13.7-26,33.6-28.1,36.2-27.7L403.4,490.4z M455.2,536.5
		c-5.4,10.2-9.7,24.4-16,35.6c-4,7.1-8.8,13-15.4,15.7c-6.4,2.6-13,0.1-19.2-4.3c-9.9-7.1-18.6-19.4-23.3-27.2
		c-7.8-13-15.1-19.1-17.8-21.1c0.9-3.2,4.1-12.7,12.5-27.7c9.7-17.3,26.2-15.4,27.1-15.3l80.8,17.3
		C475.9,512.3,464.2,519.4,455.2,536.5z"/>
	<path style="opacity:0.15;fill-rule:evenodd;clip-rule:evenodd;fill:#3564FF;" d="M627.7,344.8c0.5-2.4-1.1-4.6-3.4-5.1L559.2,327
		c-2.4-0.5-4.6,1.1-5.1,3.4c-0.5,2.4,1.1,4.6,3.4,5.1l65.1,12.7C624.9,348.7,627.2,347.1,627.7,344.8L627.7,344.8z"/>
	<path style="opacity:0.15;fill-rule:evenodd;clip-rule:evenodd;fill:#3564FF;" d="M592.9,499.7c0.5-2.4-1.1-4.6-3.4-5.1l-65.1-12.7
		c-2.4-0.5-4.6,1.1-5.1,3.4c-0.5,2.4,1.1,4.6,3.4,5.1l65.1,12.7C590.1,503.6,592.4,502,592.9,499.7L592.9,499.7z"/>
	<path style="opacity:0.15;fill-rule:evenodd;clip-rule:evenodd;fill:#3564FF;" d="M309.6,541c0.5-2.3-0.9-4.7-3.3-5.2l-64.6-15
		c-2.3-0.5-4.7,0.9-5.2,3.2c-0.5,2.3,0.9,4.7,3.3,5.2l64.6,15C306.7,544.8,309,543.3,309.6,541L309.6,541z"/>
	<path style="opacity:0.15;fill-rule:evenodd;clip-rule:evenodd;fill:#3564FF;" d="M625.6,360.4c0.5-2.4-1.1-4.6-3.4-5.1l-65.1-12.7
		c-2.4-0.5-4.6,1.1-5.1,3.4c-0.5,2.4,1.1,4.6,3.4,5.1l65.1,12.7C622.9,364.3,625.2,362.7,625.6,360.4L625.6,360.4z"/>
	<path style="opacity:0.15;fill-rule:evenodd;clip-rule:evenodd;fill:#3564FF;" d="M587.6,514.3c0.5-2.4-1.1-4.6-3.4-5.1l-65.1-12.7
		c-2.4-0.5-4.6,1.1-5.1,3.4c-0.5,2.4,1.1,4.6,3.4,5.1l65.1,12.7C584.8,518.2,587.1,516.7,587.6,514.3L587.6,514.3z"/>
	<path style="opacity:0.15;fill-rule:evenodd;clip-rule:evenodd;fill:#3564FF;" d="M298.6,553.3c0.5-2.3-0.9-4.7-3.2-5.2l-64.6-15
		c-2.3-0.5-4.7,0.9-5.2,3.2c-0.5,2.3,0.9,4.7,3.2,5.2l64.6,15C295.8,557.1,298.1,555.7,298.6,553.3L298.6,553.3z"/>
	<path style="opacity:0.15;fill-rule:evenodd;clip-rule:evenodd;fill:#3564FF;" d="M594.2,370.9c0.5-2.4-1.1-4.6-3.4-5.1l-35.8-7
		c-2.4-0.5-4.6,1.1-5.1,3.4c-0.5,2.4,1.1,4.6,3.4,5.1l35.8,7C591.5,374.8,593.8,373.3,594.2,370.9L594.2,370.9z"/>
	<path style="opacity:0.15;fill-rule:evenodd;clip-rule:evenodd;fill:#3564FF;" d="M552.9,523.2c0.5-2.4-1.1-4.6-3.4-5.1l-35.8-7
		c-2.4-0.5-4.6,1.1-5.1,3.4c-0.5,2.4,1.1,4.6,3.4,5.1l35.8,7C550.2,527.1,552.4,525.5,552.9,523.2L552.9,523.2z"/>
	<path style="opacity:0.15;fill-rule:evenodd;clip-rule:evenodd;fill:#3564FF;" d="M259.5,560.2c0.5-2.3-0.9-4.7-3.2-5.2l-35.5-8.3
		c-2.3-0.5-4.7,0.9-5.2,3.3c-0.5,2.3,0.9,4.7,3.3,5.2l35.5,8.3C256.6,564,259,562.6,259.5,560.2L259.5,560.2z"/>
	<path style="fill-rule:evenodd;clip-rule:evenodd;fill:#FFFFFF;" d="M619.5,397.8l-73.2-14.3c0,0-3.8,18.5-8.5,38.4
		c-5.2,21.9-10.3,39.3-10.3,39.3l73.2,14.3c0,0,3.2-9.6,10.6-39.3C617,413.2,619.5,397.8,619.5,397.8L619.5,397.8z"/>
	<g>
		<defs>
			<path id="XMLID_2_" d="M547.7,384.8c-1.1,5.1-4.4,20.7-8.3,37.2c-4.2,17.9-8.4,32.9-9.9,38l70.6,13.8c1.2-3.7,4.4-14.8,10.2-38.2
				c4.6-18.7,7.2-32.4,8-37.1L547.7,384.8L547.7,384.8z"/>
		</defs>
		<use xlink:href="#XMLID_2_"  style="overflow:visible;fill-rule:evenodd;clip-rule:evenodd;fill:#FFFFFF;"/>
		<clipPath id="XMLID_4_">
			<use xlink:href="#XMLID_2_"  style="overflow:visible;"/>
		</clipPath>
		<path style="opacity:0.15;clip-path:url(#XMLID_4_);fill-rule:evenodd;clip-rule:evenodd;fill:#3564FF;" d="M625.7,404.2
			l-74.2-14.5c0,0-3.9,18.8-8.6,38.9c-5.2,22.2-10.4,39.8-10.4,39.8l74.2,14.5c0,0,3.3-9.8,10.8-39.8
			C623.2,419.8,625.7,404.2,625.7,404.2L625.7,404.2z"/>
		
			<use xlink:href="#XMLID_2_"  style="overflow:visible;fill-rule:evenodd;clip-rule:evenodd;fill:none;stroke:#000000;stroke-width:1.8233;stroke-linejoin:round;stroke-miterlimit:10;"/>
	</g>
</g>
</svg>
