<?xml version="1.0" encoding="utf-8"?>
<!-- Generator: Adobe Illustrator 22.1.0, SVG Export Plug-In . SVG Version: 6.00 Build 0)  -->
<svg version="1.1" id="图层_1" xmlns="http://www.w3.org/2000/svg" xmlns:xlink="http://www.w3.org/1999/xlink" x="0px" y="0px"
	 viewBox="0 0 750 750" style="enable-background:new 0 0 750 750;" xml:space="preserve">
<g>
	<polygon style="opacity:4.000000e-02;fill-rule:evenodd;clip-rule:evenodd;fill:#3564FF;" points="300,277.5 424.8,277.5 
		424.8,116.4 300,116.4 300,277.5 	"/>
	<g style="opacity:6.000000e-02;">
		<path style="fill:#3564FF;" d="M409.8,131.7v130.7H315V131.7H409.8 M424.8,116.7H300v160.7h124.8V116.7L424.8,116.7z"/>
	</g>
	
		<polygon style="fill-rule:evenodd;clip-rule:evenodd;fill:#FFFFFF;stroke:#000000;stroke-width:1.7999;stroke-linecap:round;stroke-linejoin:round;stroke-miterlimit:10;" points="
		218.5,300.7 205.8,334.6 237.7,327.9 234.2,302.1 218.5,300.7 	"/>
	
		<polygon style="fill:none;stroke:#000000;stroke-width:1.7999;stroke-linecap:round;stroke-linejoin:round;stroke-miterlimit:10;" points="
		245.8,286.8 252.6,295.3 247.6,298.9 245.8,286.8 	"/>
	
		<path style="fill-rule:evenodd;clip-rule:evenodd;fill:#FFFFFF;stroke:#000000;stroke-width:1.7999;stroke-linecap:round;stroke-linejoin:round;stroke-miterlimit:10;" d="
		M223.5,272.3c7-3.5,16.9,2,22.2,12.4c5.2,10.4,3.8,21.7-3.1,25.2c-7,3.5-16.9-2-22.2-12.4C215.1,287.1,216.5,275.8,223.5,272.3
		L223.5,272.3z"/>
	<path style="fill-rule:evenodd;clip-rule:evenodd;" d="M249.2,257.7c5.7,7.8,4.7,18.1-2.1,23.1c-6.8,5-17,2.7-22.6-5.1
		c-5.7-7.8-4.7-18.1,2.1-23.1C233.5,247.7,243.6,250,249.2,257.7L249.2,257.7z"/>
	<path style="fill-rule:evenodd;clip-rule:evenodd;" d="M243.3,289.3c0.7,1.5,0.8,2.9,0.1,3.2c-0.7,0.3-1.8-0.6-2.5-2
		c-0.7-1.5-0.8-2.9-0.1-3.2C241.4,287,242.6,287.9,243.3,289.3L243.3,289.3z"/>
	<path style="fill-rule:evenodd;clip-rule:evenodd;" d="M206.5,275.9c5-4.4,11.9-4.8,15.4-0.8c3.5,4,2.4,10.8-2.6,15.2
		c-5,4.4-11.9,4.8-15.4,0.8C200.3,287.1,201.5,280.3,206.5,275.9L206.5,275.9z"/>
	<path style="fill-rule:evenodd;clip-rule:evenodd;" d="M218.9,267.6c5.7-4,13.5-2.8,17.5,2.8c4,5.6,2.5,13.4-3.2,17.4
		c-5.7,4-13.5,2.8-17.5-2.8C211.8,279.4,213.2,271.6,218.9,267.6L218.9,267.6z"/>
	<path style="fill-rule:evenodd;clip-rule:evenodd;" d="M214.6,266.6c2.7-2.3,7.9-0.5,11.6,3.9c3.7,4.4,4.6,9.8,1.9,12.1
		c-2.7,2.3-7.9,0.5-11.6-3.9C212.8,274.3,211.9,268.8,214.6,266.6L214.6,266.6z"/>
	<path style="fill-rule:evenodd;clip-rule:evenodd;" d="M220.6,280.1c5.1,0.7,8.6,6.3,7.8,12.5c-0.8,6.2-5.7,10.7-10.8,10
		c-5.1-0.7-8.6-6.3-7.8-12.5C210.6,283.9,215.5,279.4,220.6,280.1L220.6,280.1z"/>
	
		<path style="fill-rule:evenodd;clip-rule:evenodd;fill:#FFFFFF;stroke:#000000;stroke-width:1.7999;stroke-linecap:round;stroke-linejoin:round;stroke-miterlimit:10;" d="
		M219.8,291.4c3.1-1.5,7.1,0.3,9,4c1.9,3.8,1,8.1-2.1,9.6c-3.1,1.5-7.1-0.2-9-4C215.8,297.2,216.7,292.9,219.8,291.4L219.8,291.4z"
		/>
	
		<path style="fill-rule:evenodd;clip-rule:evenodd;fill:#FFFFFF;stroke:#000000;stroke-width:1.7999;stroke-linecap:round;stroke-linejoin:round;stroke-miterlimit:10;" d="
		M228,467c0,0,62.9,27.6,113,12.5c59.2-17.9,64.5-29.5,97-23.8c70.5,12.3,96,22.5,96,22.5l37.7-61.9c0,0-45.3-33.6-143-57.3
		C375.3,346.2,272.9,443,272.9,443L228,467L228,467z"/>
	
		<polygon style="fill-rule:evenodd;clip-rule:evenodd;fill:#FFFFFF;stroke:#000000;stroke-width:1.7999;stroke-linecap:round;stroke-linejoin:round;stroke-miterlimit:10;" points="
		501.9,442.3 553,487.4 611.9,415 579.2,417.2 527.7,393.9 501.9,442.3 	"/>
	
		<path style="fill-rule:evenodd;clip-rule:evenodd;fill:#FFFFFF;stroke:#000000;stroke-width:1.7999;stroke-linecap:round;stroke-linejoin:round;stroke-miterlimit:10;" d="
		M183.8,407.9c0,0-11.7,47.4,23.9,104.9c11.3,18.3,25.3,12.4,32,12.9c6.7,0.5-10.1-117.2-10.1-117.2S183.8,409.1,183.8,407.9
		L183.8,407.9z"/>
	
		<path style="fill-rule:evenodd;clip-rule:evenodd;fill:#FFFFFF;stroke:#000000;stroke-width:1.7999;stroke-linecap:round;stroke-linejoin:round;stroke-miterlimit:10;" d="
		M250.3,359.2c7.1-19.3-30.3-50.1-50.4-17.9c-17.8,28.3-19.4,73-19.4,73s37.5-0.8,46.3-9.8C238.9,392.2,242.2,381.2,250.3,359.2
		L250.3,359.2z"/>
	
		<path style="fill-rule:evenodd;clip-rule:evenodd;fill:#FFFFFF;stroke:#000000;stroke-width:1.7999;stroke-linecap:round;stroke-linejoin:round;stroke-miterlimit:10;" d="
		M228,457.4c0,0,62.9,27.6,113,12.5c59.2-17.9,64.6-46.6,95.9-36.3c87.3,28.9,90.7,34.9,90.7,34.9l37.7-61.9c0,0-39-33.5-136.7-57.1
		c-53.2-12.9-155.6,83.9-155.6,83.9L228,457.4L228,457.4z"/>
	
		<polygon style="fill-rule:evenodd;clip-rule:evenodd;fill:#3564FF;stroke:#000000;stroke-width:1.7999;stroke-linecap:round;stroke-linejoin:round;stroke-miterlimit:10;" points="
		401.2,251.9 385.7,260.9 379.5,350.2 395,341.1 401.2,251.9 	"/>
	
		<polygon style="fill-rule:evenodd;clip-rule:evenodd;fill:#FFFFFF;stroke:#000000;stroke-width:1.7999;stroke-linecap:round;stroke-linejoin:round;stroke-miterlimit:10;" points="
		398.4,346.4 395.6,341.6 318.3,386.6 321.1,391.5 398.4,346.4 	"/>
	
		<path style="fill-rule:evenodd;clip-rule:evenodd;fill:#FFFFFF;stroke:#000000;stroke-width:1.7999;stroke-linecap:round;stroke-linejoin:round;stroke-miterlimit:10;" d="
		M203.7,329.1c0,0-27.8,66.9,22.1,132.5l90.8-53.4c0,0-56.5-65.3-73.8-83.8L203.7,329.1L203.7,329.1z"/>
	
		<path style="fill-rule:evenodd;clip-rule:evenodd;fill:#FFFFFF;stroke:#000000;stroke-width:1.7999;stroke-linecap:round;stroke-linejoin:round;stroke-miterlimit:10;" d="
		M236.7,345.9c-19.5-6.5-33.5,15.5-18.6,50.3c16.4,38.4,35.6,56.7,57.1,65.3c11.4,4.6,31-1.9,49-37.5c9-17.8,8.8-31.4,15.5-44.6
		c1.4-2.8,15.3-5.8,19.1-20.8c2.3-9.2-12-4.5-28,0c-30.7,8.6-33.9,53-43.2,44.5c-7.1-6.5-10.3-21.5-21.8-34.5
		C256.6,358.5,246.6,349.2,236.7,345.9L236.7,345.9z"/>
	
		<path style="fill-rule:evenodd;clip-rule:evenodd;fill:#FFFFFF;stroke:#000000;stroke-width:1.7999;stroke-linecap:round;stroke-linejoin:round;stroke-miterlimit:10;" d="
		M238.9,341.9c-20-4.7-42.7,4.8-34.7,41.9c4.7,22,23.1,40.9,23.1,40.9l48-49.4C275.2,375.4,255.5,345.8,238.9,341.9L238.9,341.9z"/>
	
		<path style="fill-rule:evenodd;clip-rule:evenodd;fill:#FFFFFF;stroke:#000000;stroke-width:1.7999;stroke-linecap:round;stroke-linejoin:round;stroke-miterlimit:10;" d="
		M199.6,494.3c2.2-3.9,0.9-8.8-3-11c-3.9-2.2-8.8-0.9-11,3l-61,105.7c-2.2,3.9-0.9,8.8,3,11c3.9,2.2,8.8,0.9,11-3L199.6,494.3
		L199.6,494.3z"/>
	
		<path style="fill-rule:evenodd;clip-rule:evenodd;fill:#FFFFFF;stroke:#000000;stroke-width:1.7999;stroke-linecap:round;stroke-linejoin:round;stroke-miterlimit:10;" d="
		M533.7,484.6c2.2-3.9,0.9-8.8-3-11c-3.9-2.2-8.8-0.9-11,3L453.1,592c-2.2,3.9-0.9,8.8,3,11c3.9,2.2,8.8,0.9,11-3L533.7,484.6
		L533.7,484.6z"/>
	
		<path style="fill-rule:evenodd;clip-rule:evenodd;fill:#FFFFFF;stroke:#000000;stroke-width:1.7999;stroke-linecap:round;stroke-linejoin:round;stroke-miterlimit:10;" d="
		M333.4,497.3c-2.2-3.9-0.9-8.8,3-11c3.9-2.2,8.8-0.9,11,3L406.7,592c2.2,3.9,0.9,8.8-3,11c-3.9,2.2-8.8,0.9-11-3L333.4,497.3
		L333.4,497.3z"/>
	
		<path style="fill-rule:evenodd;clip-rule:evenodd;fill:#FFFFFF;stroke:#000000;stroke-width:1.7999;stroke-linecap:round;stroke-linejoin:round;stroke-miterlimit:10;" d="
		M541.2,485.9c-2.2-3.9-0.9-8.8,3-11c3.9-2.2,8.8-0.9,11,3L621.1,592c2.2,3.9,0.9,8.8-3,11c-3.9,2.2-8.8,0.9-11-3L541.2,485.9
		L541.2,485.9z"/>
	<path style="fill-rule:evenodd;clip-rule:evenodd;fill:#3564FF;" d="M132.6,399.9c-0.6,51.4,28.9,95.5,75.9,121.3
		c71.7,39.3,150.4,28.2,183.2,9.5c40.9-23.2,31.9-76.4-34-62.5c-110.3,23.1-158.7-33.6-161.9-81.1
		C192.7,339.7,133.1,357,132.6,399.9L132.6,399.9z"/>
	<path style="fill-rule:evenodd;clip-rule:evenodd;fill:#3564FF;" d="M622.3,504.4c0-19.8-16.1-35.8-35.8-35.8H482.4
		c-19.8,0-35.8,16.1-35.8,35.8c0,19.8,16.1,35.8,35.8,35.8h104.1C606.3,540.2,622.3,524.2,622.3,504.4L622.3,504.4z"/>
	<polygon style="opacity:4.000000e-02;fill-rule:evenodd;clip-rule:evenodd;fill:#3564FF;" points="182.6,218.9 279.3,218.9 
		279.3,138.4 182.6,138.4 182.6,218.9 	"/>
	<g style="opacity:4.000000e-02;">
		<rect x="441.3" y="197" style="fill:#3564FF;" width="89.2" height="98.3"/>
		<path style="fill:#3564FF;" d="M528.7,198.8v94.7h-85.6v-94.7H528.7 M532.3,195.2h-92.8v101.9h92.8V195.2L532.3,195.2z"/>
	</g>
	<g style="opacity:6.000000e-02;">
		<path style="fill:#3564FF;" d="M517.9,209.6v73.1h-64v-73.1H517.9 M532.3,195.2h-92.8v101.9h92.8V195.2L532.3,195.2z"/>
	</g>
	<g style="opacity:6.000000e-02;">
		<path style="fill:#3564FF;" d="M264.3,153.4v50.5h-66.7v-50.5H264.3 M279.3,138.4h-96.7v80.5h96.7V138.4L279.3,138.4z"/>
	</g>
	<polygon style="opacity:4.000000e-02;fill-rule:evenodd;clip-rule:evenodd;fill:#3564FF;" points="440,180.9 556.4,180.9 
		556.4,117.1 440,117.1 440,180.9 	"/>
	<g style="opacity:6.000000e-02;">
		<path style="fill:#3564FF;" d="M541.4,132.1v33.8H455v-33.8H541.4 M556.4,117.1H440v63.8h116.5V117.1L556.4,117.1z"/>
	</g>
</g>
</svg>
