<?xml version="1.0" encoding="utf-8"?>
<!-- Generator: Adobe Illustrator 22.1.0, SVG Export Plug-In . SVG Version: 6.00 Build 0)  -->
<svg version="1.1" id="图层_1" xmlns="http://www.w3.org/2000/svg" xmlns:xlink="http://www.w3.org/1999/xlink" x="0px" y="0px"
	 viewBox="0 0 750 750" style="enable-background:new 0 0 750 750;" xml:space="preserve">
<g>
	<path style="opacity:0.1;fill-rule:evenodd;clip-rule:evenodd;fill:#3564FF;" d="M652,136.6c0-22.2-18-40.2-40.1-40.2H419.4
		c-22.2,0-40.2,18-40.2,40.2v306.7c0,22.2,18,40.2,40.2,40.2h192.5c22.2,0,40.1-18,40.1-40.2V136.6L652,136.6z"/>
	<polyline style="fill:none;stroke:#3564FF;stroke-width:7.1997;stroke-linejoin:round;stroke-miterlimit:10;" points="413.8,143.7 
		421.9,151.5 437.5,135.3 	"/>
	<path style="fill-rule:evenodd;clip-rule:evenodd;fill:#FFFFFF;" d="M615.5,139.4c0-2.2-1.8-4.1-4.1-4.1H461.8
		c-2.2,0-4.1,1.8-4.1,4.1c0,2.2,1.8,4.1,4.1,4.1h149.6C613.7,143.4,615.5,141.6,615.5,139.4L615.5,139.4z"/>
	<path style="fill-rule:evenodd;clip-rule:evenodd;fill:#FFFFFF;" d="M563.8,151.5c0-2.2-1.8-4.1-4.1-4.1h-97.9
		c-2.2,0-4.1,1.8-4.1,4.1s1.8,4.1,4.1,4.1h97.9C562,155.6,563.8,153.8,563.8,151.5L563.8,151.5z"/>
	<polyline style="fill:none;stroke:#3564FF;stroke-width:7.1997;stroke-linejoin:round;stroke-miterlimit:10;" points="413.8,198.5 
		421.9,206.3 437.5,190.1 	"/>
	<path style="fill-rule:evenodd;clip-rule:evenodd;fill:#FFFFFF;" d="M615.5,194.1c0-2.2-1.8-4.1-4.1-4.1H461.8
		c-2.2,0-4.1,1.8-4.1,4.1c0,2.2,1.8,4.1,4.1,4.1h149.6C613.7,198.2,615.5,196.4,615.5,194.1L615.5,194.1z"/>
	<path style="fill-rule:evenodd;clip-rule:evenodd;fill:#FFFFFF;" d="M563.8,206.3c0-2.2-1.8-4.1-4.1-4.1h-97.9
		c-2.2,0-4.1,1.8-4.1,4.1c0,2.2,1.8,4.1,4.1,4.1h97.9C562,210.4,563.8,208.6,563.8,206.3L563.8,206.3z"/>
	<path style="fill-rule:evenodd;clip-rule:evenodd;fill:#FFFFFF;" d="M615.5,248.8c0-2.2-1.8-4.1-4.1-4.1H461.8
		c-2.2,0-4.1,1.8-4.1,4.1c0,2.2,1.8,4.1,4.1,4.1h149.6C613.7,252.8,615.5,251,615.5,248.8L615.5,248.8z"/>
	<path style="fill-rule:evenodd;clip-rule:evenodd;fill:#3564FF;" d="M427.5,246c4.9,0,8.8,4,8.8,8.8s-4,8.8-8.8,8.8s-8.8-4-8.8-8.8
		S422.6,246,427.5,246L427.5,246z"/>
	<path style="opacity:0.5;fill-rule:evenodd;clip-rule:evenodd;fill:#3564FF;" d="M427.5,241.7c7.2,0,13.1,5.9,13.1,13.1
		c0,7.2-5.9,13.1-13.1,13.1c-7.2,0-13.1-5.9-13.1-13.1C414.4,247.6,420.2,241.7,427.5,241.7L427.5,241.7z M427.5,243.6
		c6.2,0,11.2,5,11.2,11.2c0,6.2-5,11.2-11.2,11.2c-6.2,0-11.2-5-11.2-11.2C416.2,248.6,421.3,243.6,427.5,243.6L427.5,243.6z"/>
	<path style="fill-rule:evenodd;clip-rule:evenodd;fill:#FFFFFF;" d="M563.8,260.9c0-2.2-1.8-4.1-4.1-4.1h-97.9
		c-2.2,0-4.1,1.8-4.1,4.1s1.8,4.1,4.1,4.1h97.9C562,265,563.8,263.2,563.8,260.9L563.8,260.9z"/>
	<path style="fill-rule:evenodd;clip-rule:evenodd;fill:#FFFFFF;" d="M615.5,303.3c0-2.2-1.8-4.1-4.1-4.1H461.8
		c-2.2,0-4.1,1.8-4.1,4.1c0,2.2,1.8,4.1,4.1,4.1h149.6C613.7,307.4,615.5,305.6,615.5,303.3L615.5,303.3z"/>
	<path style="fill-rule:evenodd;clip-rule:evenodd;fill:#FFFFFF;" d="M563.8,315.5c0-2.2-1.8-4.1-4.1-4.1h-97.9
		c-2.2,0-4.1,1.8-4.1,4.1c0,2.2,1.8,4.1,4.1,4.1h97.9C562,319.6,563.8,317.8,563.8,315.5L563.8,315.5z"/>
	<path style="fill-rule:evenodd;clip-rule:evenodd;fill:#3564FF;" d="M427.5,295.4c7.2,0,13.1,5.9,13.1,13.1
		c0,7.2-5.9,13.1-13.1,13.1c-7.2,0-13.1-5.9-13.1-13.1C414.4,301.2,420.2,295.4,427.5,295.4L427.5,295.4z M427.5,297.2
		c6.2,0,11.2,5,11.2,11.2c0,6.2-5,11.2-11.2,11.2c-6.2,0-11.2-5-11.2-11.2C416.2,302.2,421.3,297.2,427.5,297.2L427.5,297.2z"/>
	<path style="fill-rule:evenodd;clip-rule:evenodd;fill:#FFFFFF;" d="M615.2,363.1c0-2.2-1.8-4.1-4.1-4.1H461.5
		c-2.2,0-4.1,1.8-4.1,4.1c0,2.2,1.8,4.1,4.1,4.1h149.6C613.4,367.2,615.2,365.3,615.2,363.1L615.2,363.1z"/>
	<path style="fill-rule:evenodd;clip-rule:evenodd;fill:#FFFFFF;" d="M563.5,375.3c0-2.2-1.8-4.1-4.1-4.1h-97.9
		c-2.2,0-4.1,1.8-4.1,4.1s1.8,4.1,4.1,4.1h97.9C561.7,379.3,563.5,377.5,563.5,375.3L563.5,375.3z"/>
	<path style="fill-rule:evenodd;clip-rule:evenodd;fill:#3564FF;" d="M427.1,355.1c7.2,0,13.1,5.9,13.1,13.1
		c0,7.2-5.9,13.1-13.1,13.1c-7.2,0-13.1-5.9-13.1-13.1C414.1,361,419.9,355.1,427.1,355.1L427.1,355.1z M427.1,357
		c6.2,0,11.2,5,11.2,11.2c0,6.2-5,11.2-11.2,11.2c-6.2,0-11.2-5-11.2-11.2C415.9,362,420.9,357,427.1,357L427.1,357z"/>
	
		<polygon style="fill-rule:evenodd;clip-rule:evenodd;fill:#FFFFFF;stroke:#000000;stroke-width:1.7999;stroke-linecap:round;stroke-linejoin:round;stroke-miterlimit:10;" points="
		290.8,205.6 267,227.5 295.1,235 302.7,213 290.8,205.6 	"/>
	
		<polygon style="fill-rule:evenodd;clip-rule:evenodd;fill:#FFFFFF;stroke:#000000;stroke-width:1.7999;stroke-linecap:round;stroke-linejoin:round;stroke-miterlimit:10;" points="
		318.1,205.5 320.2,215 314.7,215.9 318.1,205.5 	"/>
	
		<path style="fill-rule:evenodd;clip-rule:evenodd;fill:#FFFFFF;stroke:#000000;stroke-width:1.7999;stroke-linecap:round;stroke-linejoin:round;stroke-miterlimit:10;" d="
		M306.2,185c7,0,12.7,8.4,12.7,18.8c0,10.4-5.7,18.8-12.7,18.8c-7,0-12.7-8.4-12.7-18.8C293.5,193.4,299.2,185,306.2,185L306.2,185z
		"/>
	<path style="fill-rule:evenodd;clip-rule:evenodd;" d="M332.6,183.7c1.4,8.5-3.6,16.3-11,17.5c-7.4,1.2-14.6-4.7-16-13.2
		c-1.4-8.5,3.6-16.3,11-17.5C324.1,169.4,331.2,175.3,332.6,183.7L332.6,183.7z"/>
	<path style="fill-rule:evenodd;clip-rule:evenodd;" d="M315.1,206.5c0,1.4-0.6,2.6-1.2,2.6c-0.7,0-1.2-1.2-1.2-2.6
		c0-1.4,0.6-2.6,1.2-2.6C314.6,203.9,315.1,205.1,315.1,206.5L315.1,206.5z"/>
	<path style="fill-rule:evenodd;clip-rule:evenodd;" d="M291.2,180.9c5.8-1.5,11.4,1,12.6,5.6c1.2,4.6-2.5,9.6-8.2,11.1
		c-5.8,1.5-11.4-1-12.6-5.6C281.8,187.4,285.4,182.4,291.2,180.9L291.2,180.9z"/>
	<path style="fill-rule:evenodd;clip-rule:evenodd;" d="M304.4,179.3c6.2-0.9,11.9,3.3,12.8,9.3c0.9,6-3.4,11.7-9.5,12.6
		c-6.2,0.9-11.9-3.3-12.8-9.3C294,185.9,298.3,180.2,304.4,179.3L304.4,179.3z"/>
	<path style="fill-rule:evenodd;clip-rule:evenodd;" d="M301.4,176.8c3-0.7,6.5,2.8,7.7,7.8c1.2,5-0.3,9.7-3.3,10.4
		c-3,0.7-6.5-2.8-7.7-7.8C296.9,182.2,298.3,177.5,301.4,176.8L301.4,176.8z"/>
	<path style="fill-rule:evenodd;clip-rule:evenodd;" d="M300.8,190c3.8,2.6,4.4,8.5,1.2,13.1c-3.2,4.6-8.8,6.2-12.7,3.6
		c-3.8-2.6-4.4-8.5-1.2-13.1C291.3,189,297,187.4,300.8,190L300.8,190z"/>
	
		<path style="fill-rule:evenodd;clip-rule:evenodd;fill:#FFFFFF;stroke:#000000;stroke-width:1.7999;stroke-linecap:round;stroke-linejoin:round;stroke-miterlimit:10;" d="
		M295.5,212.3c-3.1,0-5.5-3-5.5-6.8c0-3.8,2.5-6.8,5.5-6.8c3.1,0,5.5,2.4,5.5,6.1"/>
	
		<path style="fill-rule:evenodd;clip-rule:evenodd;fill:#FFFFFF;stroke:#000000;stroke-width:1.7999;stroke-linecap:round;stroke-linejoin:round;stroke-miterlimit:10;" d="
		M397.7,263.3c-0.7-0.2,21-6.6,25.1-11c4.1-4.4,7.5,4.8,0.1,11.3c-8.1,7.1-21.2,6.6-21.2,6.6"/>
	
		<polygon style="fill-rule:evenodd;clip-rule:evenodd;fill:#FFFFFF;stroke:#000000;stroke-width:1.7999;stroke-linecap:round;stroke-linejoin:round;stroke-miterlimit:10;" points="
		153.6,530 93.6,612.3 184.2,614.3 175.2,602.1 183.5,565.2 153.6,530 	"/>
	
		<polygon style="fill-rule:evenodd;clip-rule:evenodd;fill:#FFFFFF;stroke:#000000;stroke-width:1.7999;stroke-linecap:round;stroke-linejoin:round;stroke-miterlimit:10;" points="
		320.6,555.8 317.8,615.9 405.3,615.4 390.9,600.8 373.8,545.5 320.6,555.8 	"/>
	
		<path style="fill-rule:evenodd;clip-rule:evenodd;fill:#FFFFFF;stroke:#000000;stroke-width:1.7999;stroke-linecap:round;stroke-linejoin:round;stroke-miterlimit:10;" d="
		M219.9,277c0,0-28.4,38.4-23.2,108.4c1.7,22.3,15.1,23.3,20.3,27c5.1,3.6,39.2-113.3,39.2-113.3S219.5,278.2,219.9,277L219.9,277z"
		/>
	
		<path style="fill-rule:evenodd;clip-rule:evenodd;fill:#FFFFFF;stroke:#000000;stroke-width:1.7999;stroke-linecap:round;stroke-linejoin:round;stroke-miterlimit:10;" d="
		M292.6,265c13.4-12.5-3.9-52.1-32.9-34.6c-25.6,15.4-44.8,50.4-44.8,50.4s30.2,14.5,40.8,10.9C270.2,286.7,277.2,279.3,292.6,265
		L292.6,265z"/>
	
		<path style="fill-rule:evenodd;clip-rule:evenodd;fill:#FFFFFF;stroke:#000000;stroke-width:1.7999;stroke-linecap:round;stroke-linejoin:round;stroke-miterlimit:10;" d="
		M243.2,327.4c0,0-5.6,34.2,24.4,110.7c29.9,76.5,43.1,141,43.1,141l79.2-7.2c0,0-23.7-129-63.2-209.7
		c-21.5-43.9-25.4-59.4-25.4-59.4L243.2,327.4L243.2,327.4z"/>
	
		<path style="fill-rule:evenodd;clip-rule:evenodd;fill:#FFFFFF;stroke:#000000;stroke-width:1.7999;stroke-linecap:round;stroke-linejoin:round;stroke-miterlimit:10;" d="
		M239.3,330.3c0,0,10.8,32.3-31.7,90.5c-42.5,58.2-88.4,132.3-88.4,132.3l73.5,29.4c0,0,78.1-55.3,96.8-125.6
		c18.7-70.3,13.8-141.5,13.8-141.5L239.3,330.3L239.3,330.3z"/>
	
		<path style="fill-rule:evenodd;clip-rule:evenodd;fill:#FFFFFF;stroke:#000000;stroke-width:1.7999;stroke-linecap:round;stroke-linejoin:round;stroke-miterlimit:10;" d="
		M267.5,222.2c0,0-49.1,42.1-35.8,114.5l101,8.9c0,0-25.7-89.7-32.1-111.4L267.5,222.2L267.5,222.2z"/>
	
		<path style="fill-rule:evenodd;clip-rule:evenodd;fill:#FFFFFF;stroke:#000000;stroke-width:1.7999;stroke-linecap:round;stroke-linejoin:round;stroke-miterlimit:10;" d="
		M281,234.5c-18.2-2.6-29.7,20.9-8.3,47.2c21.4,26.3,45.9,41.3,66.4,43.7c17.7,2.1,50-24.8,71.2-36.2c8.7-4.7-6.9,2.1,1.3,5.4
		c2.5,1,10.2-1.9,10.6-9.1c0.4-6.3-5.2-16.4-20-22.4c-13.9-5.6-51.8,18.3-61.3,12.3c-7.3-4.6-18.6-15.8-30.8-25.4
		C300.4,242.4,290.2,235.8,281,234.5L281,234.5z"/>
	
		<path style="fill-rule:evenodd;clip-rule:evenodd;fill:#FFFFFF;stroke:#000000;stroke-width:1.7999;stroke-linecap:round;stroke-linejoin:round;stroke-miterlimit:10;" d="
		M280.4,233.6c-18.3,0.5-35.8,13.8-20.5,44c9,17.9,29.2,30.1,29.2,30.1l30.3-53.5C319.4,254.3,295.7,233.2,280.4,233.6L280.4,233.6z
		"/>
	<path style="fill-rule:evenodd;clip-rule:evenodd;fill:#3564FF;" d="M515.7,424.8c27.6,0,50,22.4,50,50c0,27.6-22.4,50-50,50
		c-27.6,0-50-22.4-50-50C465.7,447.2,488.1,424.8,515.7,424.8L515.7,424.8z"/>
	<path style="fill-rule:evenodd;clip-rule:evenodd;fill:#3564FF;" d="M515.7,424.8c27.6,0,50,22.4,50,50c0,27.6-22.4,50-50,50
		c-27.6,0-50-22.4-50-50C465.7,447.2,488.1,424.8,515.7,424.8L515.7,424.8z M515.7,426.7c26.6,0,48.2,21.6,48.2,48.2
		c0,26.6-21.6,48.2-48.2,48.2c-26.6,0-48.2-21.6-48.2-48.2C467.5,448.3,489.1,426.7,515.7,426.7L515.7,426.7z"/>
	<path style="fill-rule:evenodd;clip-rule:evenodd;fill:#FFFFFF;" d="M545.4,474.8c0-2.4-1.9-4.3-4.3-4.3h-51
		c-2.4,0-4.3,1.9-4.3,4.3c0,2.4,1.9,4.3,4.3,4.3h51C543.5,479.1,545.4,477.2,545.4,474.8L545.4,474.8z"/>
	<path style="fill-rule:evenodd;clip-rule:evenodd;fill:#FFFFFF;" d="M515.7,503.1c2.5,0,4.5-2,4.5-4.5v-47.5c0-2.5-2-4.5-4.5-4.5
		c-2.5,0-4.5,2-4.5,4.5v47.5C511.2,501.1,513.2,503.1,515.7,503.1L515.7,503.1z"/>
</g>
</svg>
