<?xml version="1.0" encoding="utf-8"?>
<!-- Generator: Adobe Illustrator 22.1.0, SVG Export Plug-In . SVG Version: 6.00 Build 0)  -->
<svg version="1.1" id="图层_1" xmlns="http://www.w3.org/2000/svg" xmlns:xlink="http://www.w3.org/1999/xlink" x="0px" y="0px"
	 viewBox="0 0 750 750" style="enable-background:new 0 0 750 750;" xml:space="preserve">
<g>
	<g>
		<defs>
			<polygon id="SVGID_19_" points="608.3,-693.9 18.5,-693.9 18.5,-275.9 608.3,-275.9 608.3,-693.9 			"/>
		</defs>
		<clipPath id="SVGID_2_">
			<use xlink:href="#SVGID_19_"  style="overflow:visible;"/>
		</clipPath>
		
			<path style="clip-path:url(#SVGID_2_);fill-rule:evenodd;clip-rule:evenodd;fill:#FFFFFF;stroke:#000000;stroke-width:1.7999;stroke-linecap:round;stroke-linejoin:round;stroke-miterlimit:10;" d="
			M235.2-384c0,0-16.4,102.3-24.6,167.4c-14.1,111.9-16.9,280.6-16.9,280.6l99.7,3.4l17.9-333l17.2,332.7l104.6-5
			c0,0-5.6-164.2-19.3-281.2C403.9-301.6,369-423,369-423"/>
	</g>
</g>
<g>
	
		<polyline style="opacity:0.32;fill:none;stroke:#3564FF;stroke-width:3.5998;stroke-linecap:round;stroke-linejoin:round;stroke-miterlimit:10;" points="
		153.6,168.7 153.6,577.6 583.3,577.6 	"/>
	<polygon style="fill-rule:evenodd;clip-rule:evenodd;fill:#3564FF;" points="195.1,168.3 169,168.3 169,180.6 195.1,180.6 
		195.1,168.3 	"/>
	<polygon style="opacity:0.6;fill-rule:evenodd;clip-rule:evenodd;fill:#3564FF;" points="195.1,197.5 169,197.5 169,209.8 
		195.1,209.8 195.1,197.5 	"/>
	<polygon style="opacity:0.25;fill-rule:evenodd;clip-rule:evenodd;fill:#3564FF;" points="195.1,226.7 169,226.7 169,239 
		195.1,239 195.1,226.7 	"/>
	<polygon style="fill-rule:evenodd;clip-rule:evenodd;fill:#3564FF;" points="108.4,551.9 241.8,449.3 321,468.2 488.6,297 
		558.7,349.4 566.7,113 323.1,176.9 395.1,233.8 281.1,391.6 219.2,379.4 108.4,551.9 	"/>
	<path style="fill-rule:evenodd;clip-rule:evenodd;fill:#FFFFFF;" d="M186.1,532.1l-51.9,16.5c0,0,21.6,53.2,31,64.5
		c5.4,6.5,25.3,3.1,25.3,3.1l-9.4-10.4l32.6-36.4L186.1,532.1L186.1,532.1z"/>
	<g>
		<defs>
			<path id="SVGID_23_" d="M186.1,532.1l-51.9,16.5c0,0,21.6,53.2,31,64.5c5.4,6.5,25.3,3.1,25.3,3.1l-9.4-10.4l32.6-36.4
				L186.1,532.1L186.1,532.1z"/>
		</defs>
		<clipPath id="SVGID_4_">
			<use xlink:href="#SVGID_23_"  style="overflow:visible;"/>
		</clipPath>
		<path style="opacity:0.15;clip-path:url(#SVGID_4_);fill-rule:evenodd;clip-rule:evenodd;fill:#3564FF;" d="M153.6,524.4
			l58.2,97.9c0,0-33.7,41.6-45.8,36.7c-12.1-4.9-54.7-89.1-54.7-89.1L153.6,524.4L153.6,524.4z"/>
	</g>
	<path style="fill:none;stroke:#000000;stroke-width:1.7999;stroke-linecap:round;stroke-linejoin:round;stroke-miterlimit:10;" d="
		M186.1,532.1l-51.9,16.5c0,0,21.6,53.2,31,64.5c5.4,6.5,25.3,3.1,25.3,3.1l-9.4-10.4l32.6-36.4L186.1,532.1L186.1,532.1z"/>
	
		<path style="fill-rule:evenodd;clip-rule:evenodd;fill:#FFFFFF;stroke:#000000;stroke-width:1.7999;stroke-linecap:round;stroke-linejoin:round;stroke-miterlimit:10;" d="
		M407.4,406.3c0,0,23.4,84.6-57,139.5c-48.2,32.8-147.1,39.4-147.1,39.4l-32.2-51.2c0,0,135-40.7,155.5-77.5
		c20.5-36.8,54.7-59.8,54.7-59.8L407.4,406.3L407.4,406.3z"/>
	<polygon style="fill-rule:evenodd;clip-rule:evenodd;fill:#FFFFFF;" points="445.6,572 426.1,622 511.1,622.9 497.9,606.8 
		498.1,575.7 445.6,572 	"/>
	<g>
		<defs>
			<polygon id="SVGID_25_" points="445.6,572 426.1,622 511.1,622.9 497.9,606.8 498.1,575.7 445.6,572 			"/>
		</defs>
		<clipPath id="SVGID_6_">
			<use xlink:href="#SVGID_25_"  style="overflow:visible;"/>
		</clipPath>
		<polygon style="opacity:0.15;clip-path:url(#SVGID_6_);fill-rule:evenodd;clip-rule:evenodd;fill:#3564FF;" points="558.9,592.5 
			404.1,592.5 404.1,661.6 558.9,661.6 558.9,592.5 		"/>
	</g>
	
		<polygon style="fill:none;stroke:#000000;stroke-width:1.7999;stroke-linecap:round;stroke-linejoin:round;stroke-miterlimit:10;" points="
		445.6,572 426.1,622 511.1,622.9 497.9,606.8 498.1,575.7 445.6,572 	"/>
	
		<path style="fill-rule:evenodd;clip-rule:evenodd;fill:#FFFFFF;stroke:#000000;stroke-width:1.7999;stroke-linecap:round;stroke-linejoin:round;stroke-miterlimit:10;" d="
		M412.2,413.7c0,0,107.5-11.2,139.2,25.9c17.5,20.4,9.1,63.1-43.2,146.2l-74.4-5.2c0,0,53.6-66.2,39.2-87.9
		c-8.9-13.5-51.4-1.4-78.4-18.5c-37.9-24-38.1-52-38.1-52"/>
	
		<polygon style="fill-rule:evenodd;clip-rule:evenodd;fill:#FFFFFF;stroke:#000000;stroke-width:1.7999;stroke-linecap:round;stroke-linejoin:round;stroke-miterlimit:10;" points="
		339.3,297.8 343.5,329.6 365.6,311 352.1,292.3 339.3,297.8 	"/>
	
		<polygon style="fill-rule:evenodd;clip-rule:evenodd;fill:#FFFFFF;stroke:#000000;stroke-width:1.7999;stroke-linecap:round;stroke-linejoin:round;stroke-miterlimit:10;" points="
		354.7,275.5 363.6,279.3 361.2,284.2 354.7,275.5 	"/>
	
		<path style="fill-rule:evenodd;clip-rule:evenodd;fill:#FFFFFF;stroke:#000000;stroke-width:1.7999;stroke-linecap:round;stroke-linejoin:round;stroke-miterlimit:10;" d="
		M331.3,273.5c4-5.7,14.1-5.5,22.5,0.4c8.4,5.9,12,15.3,8.1,21c-4,5.7-14.1,5.5-22.5-0.4C330.9,288.6,327.3,279.2,331.3,273.5
		L331.3,273.5z"/>
	<path style="fill-rule:evenodd;clip-rule:evenodd;" d="M345.3,251.4c7.7,3.7,11.2,12.2,8,18.9c-3.3,6.7-12.1,9.2-19.8,5.5
		c-7.7-3.7-11.2-12.2-8-18.9C328.8,250.2,337.7,247.7,345.3,251.4L345.3,251.4z"/>
	<path style="fill-rule:evenodd;clip-rule:evenodd;" d="M353.9,278.6c1.2,0.8,1.8,2,1.4,2.5c-0.4,0.5-1.6,0.3-2.8-0.5
		c-1.2-0.8-1.8-2-1.4-2.5C351.4,277.5,352.7,277.7,353.9,278.6L353.9,278.6z"/>
	<path style="fill-rule:evenodd;clip-rule:evenodd;" d="M319.5,283.4c2-5.5,7.3-8.7,11.7-7c4.4,1.6,6.4,7.5,4.3,13
		c-2,5.5-7.3,8.7-11.7,7C319.4,294.8,317.4,288.9,319.5,283.4L319.5,283.4z"/>
	<path style="fill-rule:evenodd;clip-rule:evenodd;" d="M325.7,271.8c2.8-5.5,9.4-7.8,14.8-5.1c5.4,2.7,7.6,9.4,4.8,14.9
		c-2.8,5.5-9.4,7.8-14.8,5.1C325.1,284,322.9,277.3,325.7,271.8L325.7,271.8z"/>
	<path style="fill-rule:evenodd;clip-rule:evenodd;" d="M321.9,272.8c1.1-2.9,5.9-3.7,10.7-1.8c4.8,1.9,7.7,5.8,6.6,8.6
		c-1.1,2.9-5.9,3.7-10.7,1.8C323.7,279.6,320.8,275.7,321.9,272.8L321.9,272.8z"/>
	<path style="fill-rule:evenodd;clip-rule:evenodd;" d="M332.3,280.8c4.3-1.6,9.4,1.3,11.3,6.5c1.9,5.2,0,10.7-4.3,12.3
		c-4.3,1.6-9.4-1.3-11.3-6.5C326.1,288,328,282.4,332.3,280.8L332.3,280.8z"/>
	
		<path style="fill-rule:evenodd;clip-rule:evenodd;fill:#FFFFFF;stroke:#000000;stroke-width:1.7999;stroke-linecap:round;stroke-linejoin:round;stroke-miterlimit:10;" d="
		M347.4,297.8c-1.7,2.5-5.6,2.8-8.7,0.6c-3-2.1-4.1-5.9-2.4-8.4c1.7-2.5,5.4-3.1,8.4-0.9"/>
	
		<path style="fill-rule:evenodd;clip-rule:evenodd;fill:#FFFFFF;stroke:#000000;stroke-width:1.7999;stroke-linecap:round;stroke-linejoin:round;stroke-miterlimit:10;" d="
		M382.3,295.3c0,0,26.2-30,58.9-61.3c34-32.6,48.7-43.9,62.3-55.4c12.4-10.4,30.2-14.8,20.7,9.4c-13.1,33.5-22.5,14.3-31.6,39.8
		c-9.8,27.4-43.4,83.5-68,98.8"/>
	
		<path style="fill-rule:evenodd;clip-rule:evenodd;fill:#FFFFFF;stroke:#000000;stroke-width:1.7999;stroke-linecap:round;stroke-linejoin:round;stroke-miterlimit:10;" d="
		M363.2,339c23.4,30.8,83.5-14.5,83.5-14.5l-49.1-51.8C397.6,272.7,346.7,317.2,363.2,339L363.2,339z"/>
	
		<path style="fill-rule:evenodd;clip-rule:evenodd;fill:#FFFFFF;stroke:#000000;stroke-width:1.7999;stroke-linecap:round;stroke-linejoin:round;stroke-miterlimit:10;" d="
		M333.4,314.7c0,0,14.9,56.2-1.1,117.3l110.3-19.8c0,0-9-75.5-72.5-104.9L333.4,314.7L333.4,314.7z"/>
	
		<path style="fill-rule:evenodd;clip-rule:evenodd;fill:#FFFFFF;stroke:#000000;stroke-width:1.7999;stroke-linecap:round;stroke-linejoin:round;stroke-miterlimit:10;" d="
		M292.4,350.9c0,0-33.7,35.2-15,52.9c23.2,21.9,47.2-0.2,47.2-0.2"/>
	
		<path style="fill-rule:evenodd;clip-rule:evenodd;fill:#FFFFFF;stroke:#000000;stroke-width:1.7999;stroke-linecap:round;stroke-linejoin:round;stroke-miterlimit:10;" d="
		M351.1,321.9c29.3,25.3-21.7,78.4-21.7,78.4l-46.6-48.1c0,0,8-8.1,18.9-16.4C317.3,323.8,338.9,311.4,351.1,321.9L351.1,321.9z"/>
	
		<path style="fill-rule:evenodd;clip-rule:evenodd;fill:#FFFFFF;stroke:#000000;stroke-width:1.7999;stroke-linecap:round;stroke-linejoin:round;stroke-miterlimit:10;" d="
		M287.2,364.1c24.6-20.8,60.8-47.2,75.9-58c8.7-6.2,14.5-10,15.6-10.7c14-8.1,30.8-12.3,19.8,11.3c-17.5,37.3-22.8,12.9-33.2,37.9
		c-14.1,34.1-35.7,65.8-62.1,68.6"/>
</g>
</svg>
