<?xml version="1.0" encoding="utf-8"?>
<!-- Generator: Adobe Illustrator 22.1.0, SVG Export Plug-In . SVG Version: 6.00 Build 0)  -->
<svg version="1.1" id="图层_1" xmlns="http://www.w3.org/2000/svg" xmlns:xlink="http://www.w3.org/1999/xlink" x="0px" y="0px"
	 viewBox="0 0 750 750" style="enable-background:new 0 0 750 750;" xml:space="preserve">
<g>
	<polygon style="fill-rule:evenodd;clip-rule:evenodd;fill:#FFFFFF;" points="408.6,298.2 359.6,249.2 310.7,298.2 359.6,347.1 
		408.6,298.2 	"/>
	<g>
		<defs>
			<polygon id="SVGID_3_" points="408.6,298.2 359.6,249.2 310.7,298.2 359.6,347.1 408.6,298.2 			"/>
		</defs>
		<clipPath id="SVGID_2_">
			<use xlink:href="#SVGID_3_"  style="overflow:visible;"/>
		</clipPath>
		<polygon style="clip-path:url(#SVGID_2_);fill-rule:evenodd;clip-rule:evenodd;fill:#3564FF;" points="408.9,347.7 360,298.8 
			311,347.7 360,396.7 408.9,347.7 		"/>
	</g>
	
		<polygon style="fill:none;stroke:#000000;stroke-width:1.7999;stroke-linecap:round;stroke-linejoin:round;stroke-miterlimit:10;" points="
		408.6,298.2 359.6,249.2 310.7,298.2 359.6,347.1 408.6,298.2 	"/>
	<polygon style="fill-rule:evenodd;clip-rule:evenodd;fill:#3564FF;" points="415,417 407.7,409.8 400.5,417 407.7,424.2 415,417 	
		"/>
	<path style="fill:none;stroke:#000000;stroke-width:1.7999;stroke-linecap:round;stroke-linejoin:round;stroke-miterlimit:10;" d="
		M309,370.8c6.6,0,11.9,5.3,11.9,11.9c0,6.6-5.3,11.9-11.9,11.9c-6.6,0-11.9-5.3-11.9-11.9C297.2,376.1,302.5,370.8,309,370.8
		L309,370.8z"/>
	<path style="fill-rule:evenodd;clip-rule:evenodd;fill:#3564FF;" d="M581.9,276.2H142c0,0-12.3-16.9-1-32.7
		c18.9-26.2,69.3-30.6,102.2-9.5c0,0-10.8-35.3,2-67.9c15-38.4,61.3-75.9,125.7-67.9c94,11.7,115.4,119.3,115.4,119.3
		s29.9-41,69.8-15.3C597.5,229.2,581.9,276.2,581.9,276.2L581.9,276.2z"/>
	<g>
		<defs>
			<polygon id="SVGID_5_" points="650,351 131.2,351 131.2,631.2 650,631.2 650,351 			"/>
		</defs>
		<clipPath id="SVGID_4_">
			<use xlink:href="#SVGID_5_"  style="overflow:visible;"/>
		</clipPath>
		
			<polygon style="clip-path:url(#SVGID_4_);fill-rule:evenodd;clip-rule:evenodd;fill:#FFFFFF;stroke:#000000;stroke-width:1.7999;stroke-linecap:round;stroke-linejoin:round;stroke-miterlimit:10;" points="
			485.8,414.2 504.1,442.8 473.6,442.9 471.7,418.6 485.8,414.2 		"/>
		
			<polygon style="clip-path:url(#SVGID_4_);fill:none;stroke:#000000;stroke-width:1.7999;stroke-linecap:round;stroke-linejoin:round;stroke-miterlimit:10;" points="
			465.5,397.9 456.7,403.2 459.9,408 465.5,397.9 		"/>
		
			<path style="clip-path:url(#SVGID_4_);fill-rule:evenodd;clip-rule:evenodd;fill:#FFFFFF;stroke:#000000;stroke-width:1.7999;stroke-linecap:round;stroke-linejoin:round;stroke-miterlimit:10;" d="
			M489.8,392.6c-5-5.4-15.5-3.8-23.5,3.6c-8,7.4-10.5,17.7-5.5,23.1c5,5.4,15.5,3.8,23.5-3.6C492.3,408.3,494.8,398,489.8,392.6
			L489.8,392.6z"/>
		<path style="clip-path:url(#SVGID_4_);fill-rule:evenodd;clip-rule:evenodd;" d="M472,371.3c-7.5,5-10.1,14.4-5.7,21
			c4.4,6.6,14,7.9,21.5,3c7.5-5,10.1-14.4,5.7-21C489.1,367.7,479.5,366.4,472,371.3L472,371.3z"/>
		<path style="clip-path:url(#SVGID_4_);fill-rule:evenodd;clip-rule:evenodd;" d="M466.8,401c-1.1,1-1.6,2.3-1.1,2.8
			c0.5,0.5,1.8,0.1,2.9-1c1.1-1,1.6-2.3,1.1-2.8C469.2,399.5,467.9,400,466.8,401L466.8,401z"/>
		<path style="clip-path:url(#SVGID_4_);fill-rule:evenodd;clip-rule:evenodd;" d="M503.6,401.3c-2.9-5.5-8.9-8.1-13.3-5.8
			c-4.4,2.3-5.6,8.7-2.7,14.2c2.9,5.5,8.9,8.1,13.3,5.8C505.3,413.2,506.5,406.8,503.6,401.3L503.6,401.3z"/>
		<path style="clip-path:url(#SVGID_4_);fill-rule:evenodd;clip-rule:evenodd;" d="M495.4,389.9c-3.7-5.4-11-6.9-16.3-3.3
			c-5.3,3.6-6.6,10.9-3,16.3c3.7,5.4,11,6.9,16.3,3.3C497.7,402.6,499.1,395.3,495.4,389.9L495.4,389.9z"/>
		<path style="clip-path:url(#SVGID_4_);fill-rule:evenodd;clip-rule:evenodd;" d="M499.5,390.5c-1.6-2.9-6.7-3-11.5-0.4
			c-4.7,2.6-7.3,7.1-5.7,10c1.6,2.9,6.7,3,11.5,0.4C498.6,397.8,501.1,393.4,499.5,390.5L499.5,390.5z"/>
		<path style="clip-path:url(#SVGID_4_);fill-rule:evenodd;clip-rule:evenodd;" d="M489.7,400.4c-4.7-1.1-9.7,2.7-11,8.4
			c-1.3,5.7,1.5,11.3,6.2,12.3c4.7,1.1,9.7-2.7,11-8.4C497.2,407,494.5,401.4,489.7,400.4L489.7,400.4z"/>
		
			<path style="clip-path:url(#SVGID_4_);fill-rule:evenodd;clip-rule:evenodd;fill:#FFFFFF;stroke:#000000;stroke-width:1.7999;stroke-linecap:round;stroke-linejoin:round;stroke-miterlimit:10;" d="
			M486.8,410.6c-2.2-2.4-6.3-2.1-9.2,0.6c-2.9,2.7-3.5,6.7-1.3,9.1c2.2,2.4,6.3,2.1,9.2-0.6C488.4,417,489,412.9,486.8,410.6
			L486.8,410.6z"/>
		
			<path style="clip-path:url(#SVGID_4_);fill-rule:evenodd;clip-rule:evenodd;fill:#FFFFFF;stroke:#000000;stroke-width:1.7999;stroke-linecap:round;stroke-linejoin:round;stroke-miterlimit:10;" d="
			M529.9,540.9c0,0,5.8,35.9-25.6,116.1c-31.4,80.2-29.2,150.9-29.2,150.9l-81.5-4.9c0,0,7.3-141.1,48.7-225.7
			c22.6-46.1,26.6-62.3,26.6-62.3L529.9,540.9L529.9,540.9z"/>
		
			<path style="clip-path:url(#SVGID_4_);fill-rule:evenodd;clip-rule:evenodd;fill:#FFFFFF;stroke:#000000;stroke-width:1.7999;stroke-linecap:round;stroke-linejoin:round;stroke-miterlimit:10;" d="
			M540.4,547.7c0,0-10.5,60.3,1.3,100.6c21.2,72.6,43.7,161.1,43.7,161.1l-82.9,4.7c0,0-59.2-81.1-54.3-157.2
			c4.9-76.2,33.6-145.3,33.6-145.3L540.4,547.7L540.4,547.7z"/>
		
			<path style="clip-path:url(#SVGID_4_);fill-rule:evenodd;clip-rule:evenodd;fill:#FFFFFF;stroke:#000000;stroke-width:1.7999;stroke-linecap:round;stroke-linejoin:round;stroke-miterlimit:10;" d="
			M504.4,430.6c0,0,51.5,44.2,37.5,120.1L436,560.1c0,0,27-94.1,33.7-116.9L504.4,430.6L504.4,430.6z"/>
	</g>
	<g>
		<defs>
			<polygon id="SVGID_7_" points="650,351 131.2,351 131.2,631.2 650,631.2 650,351 			"/>
		</defs>
		<clipPath id="SVGID_6_">
			<use xlink:href="#SVGID_7_"  style="overflow:visible;"/>
		</clipPath>
	</g>
	<g>
		<defs>
			<polygon id="SVGID_9_" points="650,351 131.2,351 131.2,631.2 650,631.2 650,351 			"/>
		</defs>
		<clipPath id="SVGID_8_">
			<use xlink:href="#SVGID_9_"  style="overflow:visible;"/>
		</clipPath>
		
			<polygon style="clip-path:url(#SVGID_8_);fill:none;stroke:#000000;stroke-width:1.7999;stroke-linecap:round;stroke-linejoin:round;stroke-miterlimit:10;" points="
			278.3,461.8 275.7,460.3 251.5,517.8 254.1,519.3 278.3,461.8 		"/>
		
			<polygon style="clip-path:url(#SVGID_8_);fill-rule:evenodd;clip-rule:evenodd;fill:#FFFFFF;stroke:#000000;stroke-width:1.7999;stroke-linecap:round;stroke-linejoin:round;stroke-miterlimit:10;" points="
			458.4,459.8 276.1,459.8 276.1,596.1 458.4,596.1 458.4,459.8 		"/>
		<polygon style="opacity:0.15;clip-path:url(#SVGID_8_);fill-rule:evenodd;clip-rule:evenodd;fill:#3664FF;" points="458.4,459.8 
			276.1,459.8 285,522.2 450.7,523.4 458.4,459.8 		"/>
	</g>
	<g>
		<defs>
			<polygon id="SVGID_11_" points="458.4,459.8 276.1,459.8 285,522.2 450.7,523.4 458.4,459.8 			"/>
		</defs>
		<defs>
			<polygon id="SVGID_12_" points="650,351 131.2,351 131.2,631.2 650,631.2 650,351 			"/>
		</defs>
		<clipPath id="SVGID_10_">
			<use xlink:href="#SVGID_11_"  style="overflow:visible;"/>
		</clipPath>
		<clipPath id="SVGID_13_" style="clip-path:url(#SVGID_10_);">
			<use xlink:href="#SVGID_12_"  style="overflow:visible;"/>
		</clipPath>
		<polygon style="clip-path:url(#SVGID_13_);fill-rule:evenodd;clip-rule:evenodd;fill:#FFFFFF;" points="515,434.5 244.6,434.5 
			244.6,468.9 515,468.9 515,434.5 		"/>
	</g>
	<g>
		<defs>
			<polygon id="SVGID_15_" points="650,351 131.2,351 131.2,631.2 650,631.2 650,351 			"/>
		</defs>
		<clipPath id="SVGID_14_">
			<use xlink:href="#SVGID_15_"  style="overflow:visible;"/>
		</clipPath>
		
			<polygon style="clip-path:url(#SVGID_14_);fill:none;stroke:#000000;stroke-width:1.7999;stroke-linecap:round;stroke-linejoin:round;stroke-miterlimit:10;" points="
			458.4,459.8 276.1,459.8 285,522.2 450.7,523.4 458.4,459.8 		"/>
		
			<path style="clip-path:url(#SVGID_14_);fill-rule:evenodd;clip-rule:evenodd;fill:#FFFFFF;stroke:#000000;stroke-width:1.7999;stroke-linecap:round;stroke-linejoin:round;stroke-miterlimit:10;" d="
			M485.1,454.3c14.3-12.9,37.9,1.7,34.6,37.1c-3.3,35.4-18.8,65.2-35.3,79.3c-14.2,12.1-41.2,30.1-73.3,34.1
			c-2.2,0.3-12.9,7.9-25.7,7.3c-8.3-0.4-21.5-6.7-22.8-15c-0.6-3.7,19.6-1,33-11.2c13.9-10.5,47.8-45.7,52.6-56.4
			c3.7-8.2,12.3-29.3,17.3-44.8C469.5,472.5,477.8,460.8,485.1,454.3L485.1,454.3z"/>
		
			<path style="clip-path:url(#SVGID_14_);fill-rule:evenodd;clip-rule:evenodd;fill:#FFFFFF;stroke:#000000;stroke-width:1.7999;stroke-linecap:round;stroke-linejoin:round;stroke-miterlimit:10;" d="
			M482,451.6c16.3-10.3,39.2-8.9,43.6,26.3c2.6,20.9-7.8,43.3-7.8,43.3l-57.7-28.8C460.2,492.4,468.5,460.1,482,451.6L482,451.6z"/>
	</g>
	
		<line style="fill:none;stroke:#000000;stroke-width:1.7999;stroke-linecap:round;stroke-linejoin:round;stroke-miterlimit:10;" x1="144.5" y1="631" x2="616.3" y2="631"/>
	<path style="fill-rule:evenodd;clip-rule:evenodd;fill:#FFFFFF;" d="M169.5,561.8c2.9-3.4,9.9-2,15.8,2.9c5.9,5,8.3,11.8,5.4,15.1
		c-2.9,3.4-9.9,2-15.8-2.9C169,572,166.6,565.2,169.5,561.8L169.5,561.8z"/>
	<path style="fill-rule:evenodd;clip-rule:evenodd;" d="M185.3,564.8c-5.8-5-12.9-6.3-15.8-2.9c-2.9,3.4-0.4,10.1,5.4,15.1
		c5.9,5,12.9,6.3,15.8,2.9C193.5,576.5,191.1,569.8,185.3,564.8z M189.1,578.6c-0.8,0.9-2,1.2-3.5,1.1c-2.9-0.1-6.3-1.7-9.4-4.3
		c-3.1-2.6-5.2-5.8-5.7-8.6c-0.3-1.4-0.2-2.7,0.6-3.6c0.8-0.9,2-1.2,3.5-1.1c2.8,0.1,6.3,1.7,9.4,4.3c3.1,2.6,5.2,5.8,5.7,8.6
		C190,576.4,189.9,577.7,189.1,578.6z"/>
	<path style="fill-rule:evenodd;clip-rule:evenodd;fill:#FFFFFF;" d="M214.9,548.5c4.3,0.7,6.9,6.4,5.8,12.7
		c-1.1,6.3-5.4,10.9-9.6,10.2c-4.3-0.7-6.9-6.4-5.8-12.7C206.3,552.4,210.6,547.8,214.9,548.5L214.9,548.5z"/>
	<path style="fill-rule:evenodd;clip-rule:evenodd;" d="M214.9,548.5c-4.3-0.7-8.6,3.8-9.6,10.2c-1.1,6.3,1.6,12,5.8,12.7
		c4.3,0.7,8.6-3.8,9.6-10.2C221.8,554.9,219.2,549.2,214.9,548.5z M218.7,560.9c-0.5,3.2-2,5.9-3.9,7.4c-1,0.8-2.2,1.2-3.3,1
		c-1.2-0.2-2.1-1-2.8-2.1c-1.3-2-1.9-5.1-1.3-8.3c0.5-3.2,2-5.9,3.9-7.4c1-0.8,2.2-1.2,3.3-1c1.2,0.2,2.1,1,2.8,2.1
		C218.7,554.7,219.2,557.7,218.7,560.9z"/>
	<path style="fill-rule:evenodd;clip-rule:evenodd;fill:#FFFFFF;" d="M193.2,544.6c9.2-1.4,18.5,9.1,20.8,23.6
		c2.3,14.5-3.4,27.4-12.6,28.8c-9.2,1.4-18.5-9.2-20.8-23.6C178.3,559,184,546.1,193.2,544.6L193.2,544.6z"/>
	<path style="fill-rule:evenodd;clip-rule:evenodd;" d="M214,568.3c-2.3-14.5-11.6-25.1-20.8-23.6c-9.2,1.4-14.8,14.4-12.6,28.8
		c2.3,14.5,11.6,25.1,20.8,23.6C210.6,595.7,216.2,582.7,214,568.3z M208.7,589.4c-1.9,3.1-4.5,5.2-7.6,5.7c-3.1,0.5-6.2-0.7-9-3.1
		c-4.6-3.9-8.2-10.7-9.4-18.8c-1.3-8.1,0.1-15.8,3.2-20.8c1.9-3.1,4.5-5.2,7.6-5.7c3.1-0.5,6.2,0.7,9,3.1c4.6,3.9,8.2,10.7,9.4,18.8
		C213.2,576.7,211.9,584.3,208.7,589.4z"/>
	<polygon style="fill-rule:evenodd;clip-rule:evenodd;fill:#FFFFFF;" points="221.4,586.6 174.6,586.6 180.5,631.2 215.9,631.2 
		221.4,586.6 	"/>
	<path style="fill-rule:evenodd;clip-rule:evenodd;" d="M174.6,586.6l6,44.6h35.4l5.5-44.6H174.6z M214.1,629.2h-31.7l-5.4-40.5
		h42.2L214.1,629.2z"/>
</g>
</svg>
