<?xml version="1.0" encoding="utf-8"?>
<!-- Generator: Adobe Illustrator 22.1.0, SVG Export Plug-In . SVG Version: 6.00 Build 0)  -->
<svg version="1.1" id="图层_1" xmlns="http://www.w3.org/2000/svg" xmlns:xlink="http://www.w3.org/1999/xlink" x="0px" y="0px"
	 viewBox="0 0 750 750" style="enable-background:new 0 0 750 750;" xml:space="preserve">
<g>
	<path style="fill-rule:evenodd;clip-rule:evenodd;fill:#3564FF;" d="M285.4,290.5c0-18.3-14.8-33.1-33.1-33.1H146.6
		c-18.3,0-33.1,14.8-33.1,33.1c0,18.3,14.8,33.1,33.1,33.1h105.7C270.5,323.7,285.4,308.8,285.4,290.5L285.4,290.5z"/>
	<path style="fill-rule:evenodd;clip-rule:evenodd;fill:#3564FF;" d="M112.3,257.1c1.7-2,1.4-5.1-0.7-6.7l-10.5-8.4
		c-2.1-1.7-5.1-1.4-6.9,0.7c-1.7,2.1-1.4,5.1,0.7,6.7l10.5,8.4C107.5,259.5,110.6,259.2,112.3,257.1L112.3,257.1z"/>
	<path style="fill-rule:evenodd;clip-rule:evenodd;fill:#3564FF;" d="M127.2,248.4c2.6-0.6,4.2-3.3,3.6-5.9l-3.1-12.6
		c-0.6-2.6-3.3-4.2-5.9-3.6c-2.6,0.6-4.2,3.3-3.6,5.9l3.1,12.6C121.9,247.4,124.5,249,127.2,248.4L127.2,248.4z"/>
	<path style="fill-rule:evenodd;clip-rule:evenodd;fill:#3564FF;" d="M82.5,271.8c-0.1,2.6,1.9,4.9,4.6,5l12.9,0.6
		c2.7,0.1,4.9-1.9,5-4.6c0.1-2.7-1.9-4.9-4.6-5l-12.9-0.6C84.9,267.1,82.6,269.1,82.5,271.8L82.5,271.8z"/>
	
		<polygon style="fill-rule:evenodd;clip-rule:evenodd;fill:#FFFFFF;stroke:#000000;stroke-width:1.7999;stroke-linecap:round;stroke-linejoin:round;stroke-miterlimit:10;" points="
		493.8,507.8 503.6,584.2 420.4,647 430.8,611.5 428.6,490.9 493.8,507.8 	"/>
	
		<polygon style="fill-rule:evenodd;clip-rule:evenodd;fill:#FFFFFF;stroke:#000000;stroke-width:1.7999;stroke-linecap:round;stroke-linejoin:round;stroke-miterlimit:10;" points="
		522.5,406.4 588.4,383.7 617.6,485.5 581.9,465.9 527,467.3 522.5,406.4 	"/>
	
		<path style="fill-rule:evenodd;clip-rule:evenodd;fill:#FFFFFF;stroke:#000000;stroke-width:1.7999;stroke-linecap:round;stroke-linejoin:round;stroke-miterlimit:10;" d="
		M512.7,360.1l-110.1,75.4L533.7,394l16.8,84.3c0,0-268.3,45-222.5-48.4c24.9-50.8,123.8-117.5,123.8-117.5L512.7,360.1L512.7,360.1
		z"/>
	
		<path style="fill-rule:evenodd;clip-rule:evenodd;fill:#FFFFFF;stroke:#000000;stroke-width:1.7999;stroke-linecap:round;stroke-linejoin:round;stroke-miterlimit:10;" d="
		M383.8,224.5c20.5-5.6,38.6,20.9,17.8,54.2c-20.8,33.3-45.2,52.7-68.5,58.5C318,340.9,266,310,266,310s-17.2,4.5-28.7-3
		c-9.5-6.3-10.7-22.1,5.5-31.2c15.1-8.4,72,12.3,82,4.1c7.7-6.3,18-19.9,30.6-32.7C365.4,237,373.5,227.4,383.8,224.5L383.8,224.5z"
		/>
	
		<path style="fill-rule:evenodd;clip-rule:evenodd;fill:#FFFFFF;stroke:#000000;stroke-width:1.7999;stroke-linecap:round;stroke-linejoin:round;stroke-miterlimit:10;" d="
		M386.2,224c21.1-2.1,43.1,10.6,30.1,47.6c-7.8,21.9-29.1,38.9-29.1,38.9l-42.7-57C344.5,253.5,368.7,225.8,386.2,224L386.2,224z"/>
	
		<path style="fill-rule:evenodd;clip-rule:evenodd;fill:#FFFFFF;stroke:#000000;stroke-width:1.7999;stroke-linecap:round;stroke-linejoin:round;stroke-miterlimit:10;" d="
		M246.1,274.7c0.5-0.6-28.8,7.7-35.1,5.9c-6.4-1.8-4.2,8.8,6.4,10.6c11.6,2,14.5-1.1,20.6-2.3"/>
	
		<path style="fill-rule:evenodd;clip-rule:evenodd;fill:#FFFFFF;stroke:#000000;stroke-width:1.7999;stroke-linecap:round;stroke-linejoin:round;stroke-miterlimit:10;" d="
		M546,305.1c-1.1,66.4-29.1,62.7-32.4,142.1c-3.3,79.4-6.3,113-6.3,113l-85.4-18c0,0-12.3-86.1,12.9-170.3
		c23-76.9,81-129.3,81-129.3S546.7,262.3,546,305.1L546,305.1z"/>
	
		<polygon style="fill-rule:evenodd;clip-rule:evenodd;fill:#FFFFFF;stroke:#000000;stroke-width:1.7999;stroke-linecap:round;stroke-linejoin:round;stroke-miterlimit:10;" points="
		363.4,206.1 399.2,217 373.6,238.9 354.6,219.8 363.4,206.1 	"/>
	
		<polygon style="fill:none;stroke:#000000;stroke-width:1.7999;stroke-linecap:round;stroke-linejoin:round;stroke-miterlimit:10;" points="
		331.8,208.3 330.4,219.5 336.8,220 331.8,208.3 	"/>
	
		<path style="fill-rule:evenodd;clip-rule:evenodd;fill:#FFFFFF;stroke:#000000;stroke-width:1.7999;stroke-linecap:round;stroke-linejoin:round;stroke-miterlimit:10;" d="
		M343.7,183.5c-8.1,0.6-13.8,10.9-12.9,22.9c1,12,8.3,21.2,16.4,20.6s13.8-10.9,12.9-22.9C359.1,192.1,351.8,182.9,343.7,183.5
		L343.7,183.5z"/>
	<path style="fill-rule:evenodd;clip-rule:evenodd;" d="M313.1,184.6c-0.8,9.9,5.6,18.5,14.3,19.2c8.7,0.7,16.4-6.8,17.2-16.7
		c0.8-9.9-5.6-18.5-14.3-19.2C321.6,167.2,313.9,174.7,313.1,184.6L313.1,184.6z"/>
	<path style="fill-rule:evenodd;clip-rule:evenodd;" d="M335.4,209.2c0.2,1.7,0.9,3,1.7,2.9c0.8-0.1,1.3-1.5,1.1-3.2
		c-0.2-1.7-0.9-3-1.7-2.9C335.8,206.2,335.3,207.6,335.4,209.2L335.4,209.2z"/>
	<path style="fill-rule:evenodd;clip-rule:evenodd;" d="M360.7,177.5c-6.8-1.2-13.1,2.2-14,7.6c-1,5.4,3.7,10.8,10.5,12
		c6.8,1.2,13.1-2.2,14-7.6C372.2,184.1,367.4,178.7,360.7,177.5L360.7,177.5z"/>
	<path style="fill-rule:evenodd;clip-rule:evenodd;" d="M345.2,176.9c-7.2-0.5-13.4,4.9-13.9,11.9c-0.5,7.1,5,13.2,12.2,13.7
		c7.2,0.5,13.4-4.9,13.9-11.9C357.9,183.5,352.4,177.3,345.2,176.9L345.2,176.9z"/>
	<path style="fill-rule:evenodd;clip-rule:evenodd;" d="M348.5,173.7c-3.6-0.6-7.2,3.8-8.2,9.7c-0.9,5.9,1.2,11.2,4.8,11.7
		c3.6,0.6,7.2-3.8,8.2-9.7C354.2,179.5,352.1,174.2,348.5,173.7L348.5,173.7z"/>
	<path style="fill-rule:evenodd;clip-rule:evenodd;" d="M350.4,188.9c-4.2,3.4-4.2,10.2-0.1,15.3c4.1,5,10.8,6.4,15,3
		c4.2-3.4,4.2-10.2,0.1-15.3C361.3,186.9,354.6,185.5,350.4,188.9L350.4,188.9z"/>
	
		<path style="fill-rule:evenodd;clip-rule:evenodd;fill:#FFFFFF;stroke:#000000;stroke-width:1.7999;stroke-linecap:round;stroke-linejoin:round;stroke-miterlimit:10;" d="
		M357.3,198.4c-3.5,0.3-6.1,4-5.8,8.4c0.3,4.3,3.5,7.6,7,7.3c3.5-0.3,6.1-4,5.8-8.4C364,201.4,360.8,198.1,357.3,198.4L357.3,198.4z
		"/>
	
		<path style="fill-rule:evenodd;clip-rule:evenodd;fill:#FFFFFF;stroke:#000000;stroke-width:1.7999;stroke-linecap:round;stroke-linejoin:round;stroke-miterlimit:10;" d="
		M380.3,206.6c0,0,63.9,19.1,139.3,36l-71.9,96.1c0,0-52.2-13.9-76.2-92.3L380.3,206.6L380.3,206.6z"/>
	
		<path style="fill-rule:evenodd;clip-rule:evenodd;fill:#FFFFFF;stroke:#000000;stroke-width:1.7999;stroke-linecap:round;stroke-linejoin:round;stroke-miterlimit:10;" d="
		M387.2,241.1c-9-19.7,13.7-40.6,50.6-25.2c36.9,15.4,62.1,38,71.8,60.4c8.3,19.3-11.2,64.8-17.1,92.7c-2.4,11.4,0-8.5,6.5-0.3
		c2,2.5,1.3,12.2-6.7,15.1c-7,2.5-20.3-0.3-32-15.1c-11-13.8,3.2-64.7-6.7-73.5c-7.6-6.7-24.1-15.7-39.1-26.3
		C402.6,260.5,391.7,251.1,387.2,241.1L387.2,241.1z"/>
	
		<path style="fill-rule:evenodd;clip-rule:evenodd;fill:#FFFFFF;stroke:#000000;stroke-width:1.7999;stroke-linecap:round;stroke-linejoin:round;stroke-miterlimit:10;" d="
		M386,240.8c-5.6-20.9,3.6-45.1,42.9-38c23.3,4.2,43.9,22.9,43.9,22.9l-50.3,52.2C422.5,277.9,390.6,258.2,386,240.8L386,240.8z"/>
	<path style="fill-rule:evenodd;clip-rule:evenodd;" d="M183.9,148.3V180h16.9v-31.8H183.9z M198.9,178.1h-13v-27.8h13V178.1z"/>
	<g>
		<defs>
			<polygon id="SVGID_27_" points="234.1,124.5 217.2,124.5 217.2,184.7 234.1,184.7 234.1,124.5 			"/>
		</defs>
		<defs>
			<polygon id="SVGID_28_" points="230.1,119.8 213.2,119.8 213.2,180 230.1,180 230.1,119.8 			"/>
		</defs>
		<clipPath id="SVGID_2_">
			<use xlink:href="#SVGID_27_"  style="overflow:visible;"/>
		</clipPath>
		<clipPath id="SVGID_4_" style="clip-path:url(#SVGID_2_);">
			<use xlink:href="#SVGID_28_"  style="overflow:visible;"/>
		</clipPath>
		<rect x="217.2" y="124.5" style="opacity:0.15;clip-path:url(#SVGID_4_);fill:#3664FF;" width="12.9" height="55.6"/>
	</g>
	<path style="fill-rule:evenodd;clip-rule:evenodd;" d="M213.2,119.8V180h16.9v-60.2H213.2z M228.1,178.1h-13v-56.2h13V178.1z"/>
	<path style="fill-rule:evenodd;clip-rule:evenodd;" d="M242.4,131V180h16.9V131H242.4z M257.3,178.1h-13V133h13V178.1z"/>
	<g>
		<defs>
			<polygon id="SVGID_31_" points="293,100.5 276,100.5 276,185 293,185 293,100.5 			"/>
		</defs>
		<defs>
			<polygon id="SVGID_32_" points="288.5,95.6 271.6,95.6 271.6,180 288.5,180 288.5,95.6 			"/>
		</defs>
		<clipPath id="SVGID_6_">
			<use xlink:href="#SVGID_31_"  style="overflow:visible;"/>
		</clipPath>
		<clipPath id="SVGID_8_" style="clip-path:url(#SVGID_6_);">
			<use xlink:href="#SVGID_32_"  style="overflow:visible;"/>
		</clipPath>
		<rect x="276" y="100.5" style="opacity:0.15;clip-path:url(#SVGID_8_);fill:#3664FF;" width="12.5" height="79.5"/>
	</g>
	<path style="fill-rule:evenodd;clip-rule:evenodd;" d="M271.6,95.6V180h16.9V95.6H271.6z M286.6,178.1h-13V97.6h13V178.1z"/>
	<path style="fill-rule:evenodd;clip-rule:evenodd;" d="M275.4,482.6c0,38.2-31,69.3-69.3,69.3c-38.2,0-69.3-31-69.3-69.3
		c0-38.2,31-69.3,69.3-69.3v69.3H275.4L275.4,482.6z M204.2,415.4c-36.2,1.1-65.3,30.8-65.3,67.2c0,37.1,30.1,67.3,67.3,67.3
		c36.5,0,66.2-29.1,67.2-65.3h-67.2c-1.1,0-2-0.9-2-2V415.4L204.2,415.4z"/>
	<g>
		<defs>
			<path id="SVGID_35_" d="M216.1,404.2c38.2,0,69.3,31,69.3,69.3h-69.3V404.2L216.1,404.2z"/>
		</defs>
		<clipPath id="SVGID_10_">
			<use xlink:href="#SVGID_35_"  style="overflow:visible;"/>
		</clipPath>
		<path style="opacity:0.15;clip-path:url(#SVGID_10_);fill-rule:evenodd;clip-rule:evenodd;fill:#3564FF;" d="M223.9,396.9
			c38.2,0,69.3,31,69.3,69.3h-69.3V396.9L223.9,396.9z"/>
	</g>
	<path style="fill-rule:evenodd;clip-rule:evenodd;" d="M216.1,404.2c38.2,0,69.3,31,69.3,69.3h-69.3V404.2L216.1,404.2z
		 M218.1,406.2v65.3h65.3C282.3,435.9,253.6,407.2,218.1,406.2L218.1,406.2z"/>
	<path style="fill-rule:evenodd;clip-rule:evenodd;fill:#3564FF;" d="M517.4,171.6c7.8,0,14.1,6.3,14.1,14.1s-6.3,14.1-14.1,14.1
		c-7.8,0-14.1-6.3-14.1-14.1S509.7,171.6,517.4,171.6L517.4,171.6z"/>
	<path style="fill:none;stroke:#000000;stroke-width:1.7999;stroke-linejoin:round;stroke-miterlimit:10;" d="M568.4,186.9
		c2.2-6.6,1.1-14.2-3.5-20.2c-7.4-9.4-20.9-11-30.3-3.6c-9.4,7.4-11,20.9-3.6,30.3c5.6,7.1,14.8,9.8,23,7.4c2.7-0.8,5.6,0.8,6.4,3.5
		c0.8,2.7-0.8,5.6-3.5,6.4c-12.1,3.5-25.7-0.4-33.9-10.9c-10.9-13.8-8.5-33.9,5.3-44.7c13.8-10.9,33.9-8.5,44.7,5.3
		c7.2,9.1,8.6,20.9,4.7,31l4.4,2.1l-14.4,6.8l-3.7-15.5L568.4,186.9L568.4,186.9z"/>
</g>
</svg>
