<?xml version="1.0" encoding="utf-8"?>
<!-- Generator: Adobe Illustrator 22.1.0, SVG Export Plug-In . SVG Version: 6.00 Build 0)  -->
<svg version="1.1" id="图层_1" xmlns="http://www.w3.org/2000/svg" xmlns:xlink="http://www.w3.org/1999/xlink" x="0px" y="0px"
	 viewBox="0 0 750 750" style="enable-background:new 0 0 750 750;" xml:space="preserve">
<g>
	<path style="opacity:0.1;fill-rule:evenodd;clip-rule:evenodd;fill:#3564FF;" d="M264.2,124.1c-122,0-221,99-221,221
		c0,122,99,221,221,221s221-99,221-221C485.3,223.1,386.2,124.1,264.2,124.1z M264.2,528.9c-101.5,0-183.8-82.4-183.8-183.8
		c0-101.5,82.4-183.8,183.8-183.8s183.8,82.4,183.8,183.8C448.1,446.6,365.7,528.9,264.2,528.9z"/>
	<g style="opacity:0.1;">
		<path style="fill-rule:evenodd;clip-rule:evenodd;fill:#3564FF;" d="M264.2,316c16.1,0,29.1,13.1,29.1,29.1s-13.1,29.1-29.1,29.1
			s-29.1-13.1-29.1-29.1S248.2,316,264.2,316L264.2,316z"/>
		<path style="fill-rule:evenodd;clip-rule:evenodd;fill:#3564FF;" d="M240.2,205.6c-1.7-6.4-8.3-10.3-14.7-8.6
			c-6.4,1.7-10.3,8.3-8.6,14.7L251,341.8c1.7,6.4,8.3,10.3,14.7,8.6c6.4-1.7,10.3-8.3,8.6-14.7L240.2,205.6L240.2,205.6z"/>
		<path style="fill-rule:evenodd;clip-rule:evenodd;fill:#3564FF;" d="M263.7,363.3c7.5-4.2,10.1-13.7,5.9-21.2
			c-4.2-7.5-13.7-10.1-21.2-5.9L154.9,389c-7.5,4.2-10.1,13.7-5.9,21.2c4.2,7.5,13.7,10.1,21.2,5.9L263.7,363.3L263.7,363.3z"/>
	</g>
	<path style="fill-rule:evenodd;clip-rule:evenodd;fill:#3564FF;" d="M103.9,344.1c0-2.8-2.3-5-5-5h-9.7c-2.8,0-5,2.3-5,5
		c0,2.8,2.3,5,5,5h9.7C101.6,349.1,103.9,346.9,103.9,344.1L103.9,344.1z"/>
	<path style="fill-rule:evenodd;clip-rule:evenodd;fill:#3564FF;" d="M264,183.7c2.8,0,5-2.3,5-5v-9.5c0-2.8-2.3-5-5-5
		c-2.8,0-5,2.3-5,5v9.5C259,181.4,261.2,183.7,264,183.7L264,183.7z"/>
	<path style="fill-rule:evenodd;clip-rule:evenodd;fill:#3564FF;" d="M264,525.7c2.8,0,5-2.3,5-5v-9.5c0-2.8-2.3-5-5-5
		c-2.8,0-5,2.3-5,5v9.5C259,523.5,261.2,525.7,264,525.7L264,525.7z"/>
	
		<polygon style="fill-rule:evenodd;clip-rule:evenodd;fill:#FFFFFF;stroke:#000000;stroke-width:1.7999;stroke-linecap:round;stroke-linejoin:round;stroke-miterlimit:10;" points="
		359.9,225.5 389.9,241.1 363.5,256.4 349.9,236.2 359.9,225.5 	"/>
	
		<polygon style="fill-rule:evenodd;clip-rule:evenodd;fill:#FFFFFF;stroke:#000000;stroke-width:1.7999;stroke-linecap:round;stroke-linejoin:round;stroke-miterlimit:10;" points="
		333,224.9 330.9,235 336.6,235.8 333,224.9 	"/>
	
		<path style="fill-rule:evenodd;clip-rule:evenodd;fill:#FFFFFF;stroke:#000000;stroke-width:1.7999;stroke-linecap:round;stroke-linejoin:round;stroke-miterlimit:10;" d="
		M345.5,203.5c-7.3,0-13.2,8.8-13.2,19.7c0,10.9,5.9,19.7,13.2,19.7c7.3,0,13.2-8.8,13.2-19.7C358.7,212.3,352.8,203.5,345.5,203.5
		L345.5,203.5z"/>
	<path style="fill-rule:evenodd;clip-rule:evenodd;" d="M317.9,202.3c-1.4,8.9,3.7,17.1,11.5,18.3c7.8,1.3,15.3-4.9,16.7-13.8
		c1.4-8.9-3.7-17.1-11.5-18.3C326.8,187.2,319.3,193.4,317.9,202.3L317.9,202.3z"/>
	<path style="fill-rule:evenodd;clip-rule:evenodd;" d="M336.2,226c0,1.5,0.6,2.7,1.3,2.7c0.7,0,1.2-1.2,1.2-2.8
		c0-1.5-0.6-2.7-1.3-2.7C336.7,223.3,336.1,224.5,336.2,226L336.2,226z"/>
	<path style="fill-rule:evenodd;clip-rule:evenodd;" d="M361.1,199.3c-6-1.6-11.9,1-13.2,5.9c-1.3,4.8,2.6,10,8.6,11.6
		c6,1.6,11.9-1,13.2-5.9C371,206.1,367.2,200.9,361.1,199.3L361.1,199.3z"/>
	<path style="fill-rule:evenodd;clip-rule:evenodd;" d="M347.3,197.6c-6.4-1-12.4,3.4-13.4,9.7c-0.9,6.3,3.5,12.2,10,13.2
		c6.4,1,12.4-3.4,13.4-9.7C358.2,204.5,353.8,198.6,347.3,197.6L347.3,197.6z"/>
	<path style="fill-rule:evenodd;clip-rule:evenodd;" d="M350.5,195c-3.2-0.8-6.8,2.9-8,8.1c-1.3,5.3,0.3,10.1,3.5,10.9
		c3.2,0.8,6.8-2.9,8-8.1C355.2,200.7,353.7,195.8,350.5,195L350.5,195z"/>
	<path style="fill-rule:evenodd;clip-rule:evenodd;" d="M351.1,208.8c-4,2.7-4.5,8.9-1.2,13.7c3.3,4.8,9.2,6.5,13.2,3.8
		s4.6-8.9,1.2-13.7C361.1,207.8,355.1,206.1,351.1,208.8L351.1,208.8z"/>
	
		<path style="fill-rule:evenodd;clip-rule:evenodd;fill:#FFFFFF;stroke:#000000;stroke-width:1.7999;stroke-linecap:round;stroke-linejoin:round;stroke-miterlimit:10;" d="
		M356.6,232.1c3.2,0,5.8-3.2,5.8-7.1c0-3.9-2.6-7.1-5.8-7.1c-3.2,0-5.8,2.5-5.8,6.4"/>
	
		<polygon style="fill-rule:evenodd;clip-rule:evenodd;fill:#FFFFFF;stroke:#000000;stroke-width:1.7999;stroke-linecap:round;stroke-linejoin:round;stroke-miterlimit:10;" points="
		549.5,451.5 607.1,386.2 680.2,438.1 638.9,442.9 591.6,472.7 549.5,451.5 	"/>
	
		<polygon style="fill-rule:evenodd;clip-rule:evenodd;fill:#FFFFFF;stroke:#000000;stroke-width:1.7999;stroke-linecap:round;stroke-linejoin:round;stroke-miterlimit:10;" points="
		365.2,557.1 382.4,619.3 282.5,622 305.1,601.9 308.7,552.9 365.2,557.1 	"/>
	
		<path style="fill-rule:evenodd;clip-rule:evenodd;fill:#FFFFFF;stroke:#000000;stroke-width:1.7999;stroke-linecap:round;stroke-linejoin:round;stroke-miterlimit:10;" d="
		M425.6,219.7c0,0,26.7-8.5,48.3-0.1c25.1,9.8,51,28.2,74.3,60.1c13.8,18.9,14.5,39.1-3.8,40.6c-16.9,1.4-21.1-32.4-21.1-32.4
		s-32.9-14.2-54.5-18.8c-16.9-3.6-35.7,5.4-36.6,1.5C432.3,270.6,426.8,220.4,425.6,219.7L425.6,219.7z"/>
	
		<path style="fill-rule:evenodd;clip-rule:evenodd;fill:#FFFFFF;stroke:#000000;stroke-width:1.7999;stroke-linecap:round;stroke-linejoin:round;stroke-miterlimit:10;" d="
		M407.1,283.4c-12.1,7.1-39.6-25.8-20.8-45.2c16.6-17.1,47.2-25.2,47.2-25.2l12.3,59.8C445.7,272.8,420.9,275.3,407.1,283.4
		L407.1,283.4z"/>
	
		<path style="fill-rule:evenodd;clip-rule:evenodd;fill:#FFFFFF;stroke:#000000;stroke-width:1.7999;stroke-linecap:round;stroke-linejoin:round;stroke-miterlimit:10;" d="
		M452,326.9c0,0,22.6,66.3-55.5,101.8c-69.4,31.5-15.1,155.2-15.1,155.2l-82.7-7.5c0,0-42.2-112.1-9.8-157.1
		c29.9-41.4,88.7-74.6,88.7-74.6L452,326.9L452,326.9z"/>
	
		<path style="fill-rule:evenodd;clip-rule:evenodd;fill:#FFFFFF;stroke:#000000;stroke-width:1.7999;stroke-linecap:round;stroke-linejoin:round;stroke-miterlimit:10;" d="
		M456.2,330c0,0,26.3,6.6,42.8,93c4.5,23.4,73-7.7,73-7.7l64.4,49.4c0,0-91.6,71.5-182.6,25.2c-41.3-21-66.3-171.6-66.3-171.6
		L456.2,330L456.2,330z"/>
	
		<path style="fill-rule:evenodd;clip-rule:evenodd;fill:#FFFFFF;stroke:#000000;stroke-width:1.7999;stroke-linecap:round;stroke-linejoin:round;stroke-miterlimit:10;" d="
		M383.4,231.6c0,0,63.7,22.6,77.9,98.2l-100.1,29.7c0,0-3.6-80.1-5.6-103.7L383.4,231.6L383.4,231.6z"/>
	
		<path style="fill-rule:evenodd;clip-rule:evenodd;fill:#FFFFFF;stroke:#000000;stroke-width:1.7999;stroke-linecap:round;stroke-linejoin:round;stroke-miterlimit:10;" d="
		M365.5,247.8c19-2.7,31,21.9,8.7,49.3c-22.4,27.4-47.9,43.2-69.4,45.7c-18.5,2.2-52.2-25.9-74.4-37.9c-9.1-4.9,7.2,2.2-1.4,5.6
		c-2.6,1.1-10.6-2-11.1-9.5c-0.4-6.6,5.4-17.2,20.9-23.4c14.5-5.8,54.2,19.1,64.1,12.8c7.6-4.8,19.4-16.5,32.2-26.6
		C345.1,256,355.8,249.1,365.5,247.8L365.5,247.8z"/>
	
		<path style="fill-rule:evenodd;clip-rule:evenodd;fill:#FFFFFF;stroke:#000000;stroke-width:1.7999;stroke-linecap:round;stroke-linejoin:round;stroke-miterlimit:10;" d="
		M366,246.8c19.2,0.5,37.4,14.4,21.5,46c-9.4,18.7-30.5,31.5-30.5,31.5l-31.7-55.9C325.3,268.5,350.1,246.4,366,246.8L366,246.8z"/>
	<path style="fill-rule:evenodd;clip-rule:evenodd;fill:#3564FF;" d="M570.2,361.5c-3.5,0.5-6.7-2-7.1-5.5l-12.8-98.4
		c-0.5-3.5,2-6.7,5.5-7.1l67.8-8.8c3.5-0.5,6.7,2,7.1,5.5l12.8,98.4c0.5,3.5-2,6.7-5.5,7.1L570.2,361.5L570.2,361.5z"/>
	<path style="fill-rule:evenodd;clip-rule:evenodd;fill:#FFFFFF;" d="M589.9,310.9c-0.5,0.1-1-0.3-1-0.8l-2.3-17.9
		c-0.1-0.5,0.3-1,0.8-1l9.8-1.3c0.5-0.1,1,0.3,1,0.8l2.3,17.9c0.1,0.5-0.3,1-0.8,1L589.9,310.9L589.9,310.9z"/>
	<g>
		<defs>
			<path id="SVGID_1_" d="M589.9,310.9c-0.5,0.1-1-0.3-1-0.8l-2.3-17.9c-0.1-0.5,0.3-1,0.8-1l9.8-1.3c0.5-0.1,1,0.3,1,0.8l2.3,17.9
				c0.1,0.5-0.3,1-0.8,1L589.9,310.9L589.9,310.9z"/>
		</defs>
		<clipPath id="SVGID_2_">
			<use xlink:href="#SVGID_1_"  style="overflow:visible;"/>
		</clipPath>
		<path style="opacity:0.25;clip-path:url(#SVGID_2_);fill-rule:evenodd;clip-rule:evenodd;fill:#3564FF;" d="M591.9,310.7
			c-0.5,0.1-0.9-0.3-0.9-0.7l-2.4-18.2c-0.1-0.5,0.3-0.9,0.7-0.9l9-1.2c0.5-0.1,0.9,0.3,0.9,0.7l2.4,18.2c0.1,0.5-0.3,0.9-0.7,0.9
			L591.9,310.7L591.9,310.7z"/>
	</g>
	<path style="fill-rule:evenodd;clip-rule:evenodd;fill:#3564FF;" d="M552.1,331.7c-8,1-15.4-4.6-16.4-12.7l-2.7-20.5
		c-1-8,4.6-15.4,12.7-16.4l17.9-2.3c8-1,15.4,4.6,16.4,12.7l2.7,20.5c1,8-4.6,15.4-12.7,16.4L552.1,331.7L552.1,331.7z M551.1,324.6
		c-4.1,0.5-7.9-2.4-8.4-6.5l-2.7-20.5c-0.5-4.1,2.4-7.9,6.5-8.4l18-2.3c4.1-0.5,7.9,2.4,8.4,6.5l2.7,20.5c0.5,4.1-2.4,7.9-6.5,8.4
		L551.1,324.6L551.1,324.6z"/>
	
		<path style="fill-rule:evenodd;clip-rule:evenodd;fill:#FFFFFF;stroke:#000000;stroke-width:1.7999;stroke-linecap:round;stroke-linejoin:round;stroke-miterlimit:10;" d="
		M547.3,319.8c0,0-13.5,3.6-17.9-10.5c-2.9-9.2,0.8-15.7,4.8-17.9c8.7-4.7,13.1,0,13.1,0"/>
</g>
</svg>
